<svg version="1.0" xmlns="http://www.w3.org/2000/svg" viewBox="0 0 700 700"><path d="M0 350v350h700V0H0v350zm303.2-6c27.9 72.9 50.8 132.6 50.8 132.7 0 .2-18.2.3-40.4.3h-40.5l-11.2-28.5-11.3-28.5-40 .2-39.9.3-7.2 18.5c-4 10.2-8.9 22.9-10.9 28.2l-3.8 9.8h-40.5c-32 0-40.4-.3-40-1.3 2.4-6.4 99.3-259 100.3-261.5l1.3-3.2 41.2.2 41.3.3L303.2 344zM550 214.2c12.3 3.4 19.3 6.5 28.5 12.9 17.8 12.3 28.5 28.8 34.7 53.6 1.9 7.5 2.2 11.5 2.2 27.8 0 17.4-.2 19.8-2.6 28.7-7.8 28.7-27.9 51.4-54.3 61.4-15.3 5.8-21.9 6.5-61.2 7.1l-36.3.6V477h-78V210.9l78.8.3 78.7.4 9.5 2.6z"/><path d="M196 325.2c-8 20.9-14.6 38.4-14.8 38.9-.2.5 12.4.9 29.3.9 28.5 0 29.7-.1 29.2-1.9-.7-2.9-28-74.5-28.6-75.3-.3-.4-7.1 16.4-15.1 37.4zm265-17.1v38.1l25.3-.4c29.6-.5 32.1-1.1 40.3-9.3 7.4-7.3 9.7-14 9.8-27.5.1-22.6-8.5-35.1-26.4-37.9-3.6-.6-16.1-1.1-27.7-1.1H461v38.1z"/></svg>