<svg xmlns="http://www.w3.org/2000/svg" width="350" height="350" viewBox="0 0 92.604 92.604"><defs><path id="a" d="M50.243 24.855h80.993v65.698H50.243z"/></defs><path fill="#386394" d="M0 0h92.604v92.604H0z"/><path d="M92.604.904l-91.7 91.7h91.7z" fill="#194776"/><path d="M0 0h92.604L0 92.604z" fill="#113d69"/><g style="line-height:1.25;white-space:pre;shape-inside:url(#a)"><path d="M11.078 64.708L24.585 29.49h10.88l13.508 35.217H38.255l-2.953-7.492h-10.61l-2.897 7.492zm14.984-14.875h7.874L29.998 39.5zM52.8 64.708V29.49h18.155q4.32 0 7.109 1.75 2.844 1.696 4.21 4.648 1.368 2.953 1.368 6.562 0 3.718-1.587 6.617-1.586 2.898-4.483 4.538-2.9 1.64-6.836 1.64h-7.655v9.462zm10.28-17.335h5.304q2.407 0 3.555-1.367 1.203-1.367 1.203-3.555 0-2.35-1.094-3.718t-3.39-1.367h-5.577z" style="-inkscape-font-specification:'Kanit Bold'" aria-label="AP" font-weight="700" font-size="50.8" font-family="Kanit" letter-spacing="0" word-spacing="0" fill="#1a2f47"/></g><g style="line-height:1.25;white-space:pre;shape-inside:url(#a)"><path d="M8.962 63.114l13.507-35.217h10.88l13.508 35.217H36.139l-2.953-7.492h-10.61l-2.897 7.492zm14.984-14.875h7.874l-3.938-10.334zm26.739 14.875V27.897H68.84q4.32 0 7.109 1.75 2.844 1.696 4.21 4.648 1.368 2.953 1.368 6.562 0 3.718-1.587 6.617-1.586 2.898-4.483 4.538-2.9 1.64-6.836 1.64h-7.655v9.462zm10.28-17.335h5.304q2.407 0 3.555-1.367 1.203-1.367 1.203-3.555 0-2.35-1.094-3.718t-3.39-1.367h-5.577z" style="-inkscape-font-specification:'Kanit Bold'" aria-label="AP" font-weight="700" font-size="50.8" font-family="Kanit" letter-spacing="0" word-spacing="0" fill="#f3f7fc"/></g></svg>