<svg xmlns="http://www.w3.org/2000/svg" viewBox="0 0 92.604 92.604"><defs><path id="a" d="M50.243 24.855h80.993v65.698H50.243z"/></defs><g style="display:inline"><path style="fill:#386394;fill-opacity:1;stroke-width:.767807" d="M38.784 94.321h92.604v92.604H38.784z" transform="translate(-38.784 -94.321)"/></g><g style="display:inline"><path style="fill:#194776;fill-opacity:1;stroke:none;stroke-width:2.28419;stroke-miterlimit:4;stroke-dasharray:none;stroke-opacity:1" d="m131.388 95.225-91.7 91.7h91.7z" transform="translate(-38.784 -94.321)"/></g><g style="display:inline"><path style="display:inline;fill:#113d69;fill-opacity:1;stroke:none;stroke-width:2.2842;stroke-miterlimit:4;stroke-dasharray:none;stroke-opacity:1" d="M38.784 94.321h92.604l-92.604 92.604Z" transform="translate(-38.784 -94.321)"/></g><g style="font-style:normal;font-weight:400;font-size:50.8px;line-height:1.25;font-family:sans-serif;letter-spacing:0;word-spacing:0;white-space:pre;shape-inside:url(#a);display:inline;fill:#1a2f47;fill-opacity:1;stroke:none"><path d="m51.514 69.802 12.548-32.716H74.17l12.548 32.716h-9.957l-2.743-6.96h-9.856l-2.692 6.96zm13.92-13.818h7.315l-3.658-9.601zm24.84 13.818V37.086h16.866q4.013 0 6.604 1.626 2.642 1.575 3.912 4.318 1.27 2.743 1.27 6.096 0 3.454-1.474 6.147-1.473 2.692-4.165 4.216-2.693 1.524-6.35 1.524h-7.112v8.789zm9.55-16.104h4.928q2.236 0 3.302-1.27 1.118-1.27 1.118-3.302 0-2.184-1.016-3.454t-3.15-1.27h-5.181z" style="font-style:normal;font-variant:normal;font-weight:700;font-stretch:normal;font-size:50.8px;font-family:Kanit;-inkscape-font-specification:'Kanit Bold';fill:#1a2f47;fill-opacity:1" aria-label="AP" transform="translate(-44.374 -10.43) scale(1.07644)"/></g><g style="display:inline"><g style="font-style:normal;font-weight:400;font-size:50.8px;line-height:1.25;font-family:sans-serif;letter-spacing:0;word-spacing:0;white-space:pre;shape-inside:url(#a);fill:#f3f7fc;fill-opacity:1;stroke:none"><path d="m51.514 69.802 12.548-32.716H74.17l12.548 32.716h-9.957l-2.743-6.96h-9.856l-2.692 6.96zm13.92-13.818h7.315l-3.658-9.601zm24.84 13.818V37.086h16.866q4.013 0 6.604 1.626 2.642 1.575 3.912 4.318 1.27 2.743 1.27 6.096 0 3.454-1.474 6.147-1.473 2.692-4.165 4.216-2.693 1.524-6.35 1.524h-7.112v8.789zm9.55-16.104h4.928q2.236 0 3.302-1.27 1.118-1.27 1.118-3.302 0-2.184-1.016-3.454t-3.15-1.27h-5.181z" style="font-style:normal;font-variant:normal;font-weight:700;font-stretch:normal;font-size:50.8px;font-family:Kanit;-inkscape-font-specification:'Kanit Bold';fill:#f3f7fc;fill-opacity:1" aria-label="AP" transform="translate(-46.49 -12.024) scale(1.07644)"/></g></g></svg>