<svg xmlns="http://www.w3.org/2000/svg" width="211.998" height="64" viewBox="0 0 56.091 16.933"><g transform="translate(-69.397 -81.492)"><circle fill="none" cx="77.939" cy="89.959" r="7.63"/><path d="M77.848 81.492c-2.349 0-4.33.822-5.942 2.464a8.502 8.502 0 00-1.867 2.775 8.346 8.346 0 00-.642 3.228 8.304 8.304 0 002.487 5.964 8.517 8.517 0 002.752 1.86 8.227 8.227 0 003.212.642 8.428 8.428 0 003.25-.65 8.702 8.702 0 002.813-1.875 7.772 7.772 0 001.807-2.684 8.64 8.64 0 00.612-3.257c0-1.15-.208-2.235-.62-3.259a8.142 8.142 0 00-1.814-2.729c-1.663-1.652-3.68-2.48-6.048-2.48zm.03 1.527c1.915 0 3.553.68 4.915 2.041a6.77 6.77 0 011.495 2.238c.343.837.514 1.724.514 2.661 0 1.946-.66 3.563-1.98 4.854a7.313 7.313 0 01-2.305 1.527 6.833 6.833 0 01-2.639.528 6.788 6.788 0 01-2.63-.521 6.976 6.976 0 01-2.253-1.512 7.014 7.014 0 01-1.535-2.253 6.627 6.627 0 01-.537-2.623c0-.917.179-1.797.537-2.638a7.28 7.28 0 011.535-2.276c1.32-1.35 2.948-2.026 4.883-2.026z"/><path d="M82.656 88.553l-1.12.59c-.12-.252-.269-.429-.445-.53a1.028 1.028 0 00-.507-.15c-.756 0-1.134.498-1.134 1.496 0 .454.096.816.287 1.088.192.273.474.409.847.409.494 0 .842-.242 1.043-.726l1.058.53a2.6 2.6 0 01-.937.975 2.443 2.443 0 01-1.285.355c-.766 0-1.378-.232-1.836-.696-.46-.463-.689-1.108-.689-1.935 0-.806.235-1.446.704-1.92.468-.473 1.06-.71 1.776-.71 1.048 0 1.795.407 2.238 1.224zm-4.884 0l-1.134.59c-.121-.252-.27-.429-.446-.53-.176-.1-.34-.15-.491-.15-.756 0-1.134.498-1.134 1.496 0 .454.095.816.287 1.088.191.273.474.409.847.409.494 0 .841-.242 1.043-.726l1.043.53a2.487 2.487 0 01-2.222 1.33c-.756 0-1.366-.232-1.83-.696-.463-.463-.695-1.108-.695-1.935 0-.806.234-1.446.703-1.92.468-.473 1.06-.71 1.776-.71 1.049 0 1.8.407 2.253 1.224z"/></g><path d="M26.866 4.188c0-.796.393-1.194 1.18-1.194.786 0 1.179.398 1.179 1.194 0 .786-.394 1.18-1.18 1.18-.786 0-1.18-.394-1.18-1.18zm3.462 2.177v3.462h-.967v4.112h-2.63V9.827h-.968V6.365c0-.151.053-.28.158-.385a.527.527 0 01.386-.16h3.477c.141 0 .268.054.378.16.11.105.166.234.166.385z"/><path d="M28.03 0c-2.338 0-4.323.816-5.956 2.45-1.663 1.693-2.495 3.699-2.495 6.017 0 2.318.832 4.308 2.495 5.971 1.683 1.664 3.668 2.495 5.956 2.495 2.328 0 4.35-.842 6.062-2.525 1.613-1.582 2.42-3.562 2.42-5.941 0-2.369-.822-4.374-2.464-6.018C32.415.816 30.408 0 28.03 0zm.03 1.527c1.915 0 3.548.675 4.899 2.026 1.35 1.35 2.025 2.988 2.025 4.913 0 1.956-.665 3.574-1.995 4.854-1.401 1.381-3.045 2.07-4.93 2.07-1.894 0-3.527-.684-4.898-2.055-1.37-1.37-2.055-2.993-2.055-4.868 0-1.864.69-3.502 2.07-4.914 1.331-1.35 2.96-2.026 4.884-2.026zm15.8 5.745c.16-1.038.579-1.842 1.254-2.411.676-.57 1.497-.854 2.465-.854 1.33 0 2.389.428 3.175 1.284.786.857 1.179 1.956 1.179 3.296 0 1.3-.408 2.382-1.224 3.243-.817.862-1.875 1.293-3.176 1.293-.957 0-1.784-.287-2.48-.862-.695-.575-1.113-1.39-1.254-2.45h2.132c.05 1.029.67 1.543 1.86 1.543.594 0 1.073-.257 1.436-.77.363-.515.545-1.2.545-2.057 0-.897-.167-1.58-.499-2.049-.333-.468-.811-.703-1.437-.703-1.129 0-1.764.5-1.905 1.497h.62L44.873 8.95l-1.678-1.678z"/><path d="M47.61 0c-2.329 0-4.314.822-5.957 2.465-1.663 1.693-2.495 3.694-2.495 6.002 0 2.319.832 4.308 2.495 5.971 1.683 1.664 3.668 2.495 5.957 2.495 2.337 0 4.359-.836 6.062-2.51 1.613-1.602 2.42-3.587 2.42-5.956s-.823-4.37-2.465-6.003C51.983.821 49.977 0 47.61 0zm.03 1.527c1.924 0 3.557.68 4.898 2.041 1.35 1.33 2.026 2.964 2.026 4.899 0 1.945-.666 3.563-1.996 4.853-1.401 1.381-3.044 2.071-4.929 2.071-1.895 0-3.528-.685-4.898-2.056-1.371-1.36-2.056-2.983-2.056-4.868 0-1.865.69-3.498 2.071-4.899 1.33-1.36 2.958-2.041 4.883-2.041z"/></svg>