<svg xmlns="http://www.w3.org/2000/svg" width="100" height="100" viewBox="0 0 100 100" xml:space="preserve"><g style="opacity:1;fill:#000;fill-opacity:1"><path d="m18.853 17.438-3.604-3.604a.613.613 0 0 0-.267-.156A5.457 5.457 0 0 0 16 10.5a5.5 5.5 0 1 0-5.5 5.5 5.468 5.468 0 0 0 3.18-1.018c.028.101.08.191.155.267l3.604 3.604c.301.301.858.227 1.249-.165.391-.391.465-.949.165-1.25zM10.5 14A3.501 3.501 0 0 1 7 10.5C7 8.568 8.568 7 10.5 7S14 8.568 14 10.5 12.432 14 10.5 14z" style="fill:#000;fill-opacity:1" transform="matrix(7.12386 0 0 7.12349 -35.62 -35.617)"/></g></svg>