<svg xmlns="http://www.w3.org/2000/svg" width="100" height="100" viewBox="0 0 26.458 26.458"><defs><path id="a" d="M-9.863 11.56h33.374v14.267H-9.863z"/></defs><path style="opacity:1;fill:#13406c;stroke-width:.451015" d="M49.947 0A50 50 0 0 0 0 50a50 50 0 0 0 50 50 50 50 0 0 0 50-50A50 50 0 0 0 50 0a50 50 0 0 0-.053 0zm-.12 5A45 45 0 0 1 50 5a45 45 0 0 1 45 45 45 45 0 0 1-45 45A45 45 0 0 1 5 50 45 45 0 0 1 49.826 5z" transform="scale(.26458)"/><path style="fill:none;fill-rule:evenodd;stroke:#13406c;stroke-width:.906449;stroke-opacity:1" d="M13.244 25.414c8.36-8.36 8.722-15.996 0-24.717m-.03 25.065c-8.36-8.36-8.721-15.996 0-24.717"/><path style="fill:none;fill-rule:evenodd;stroke:#13406c;stroke-width:.719159;stroke-opacity:1" d="M22.199 3.71c-6.219 5.285-11.97 5.268-17.934 0m17.934 19.042c-6.219-5.285-11.97-5.269-17.934 0"/><path style="opacity:1;fill:#13406c;fill-opacity:1;stroke:#13406c;stroke-width:.671628;stroke-opacity:1" d="M13.168.336h.122v25.787h-.122z"/><path style="fill:#13406c;fill-opacity:1;stroke:#13406c;stroke-width:.671628;stroke-opacity:1" transform="rotate(90)" d="M13.168-26.123h.122V-.336h-.122z"/><path style="fill:#13406c;fill-opacity:1;stroke:none;stroke-width:1.26573;stroke-opacity:1" d="M1.016 8.368h24.426v9.723H1.016z"/><path style="fill:#fff;fill-opacity:1;stroke:none;stroke-width:1.07668;stroke-opacity:1" d="M2.092 9.372h22.274v7.715H2.092z"/><g style="font-style:normal;font-weight:400;font-size:5.64444px;line-height:1.25;font-family:sans-serif;letter-spacing:0;word-spacing:0;white-space:pre;shape-inside:url(#a);fill:#13406c;fill-opacity:1;stroke:none"><path d="M-9.665 13.466h.96l.517 2.127.521-2.127h.824l.519 2.105.52-2.105h.96l-.814 3.087h-1.077l-.521-2.123-.518 2.123h-1.078zm5.215 0h.959l.518 2.127.52-2.127h.825l.518 2.105.52-2.105h.96l-.813 3.087h-1.078l-.52-2.123-.519 2.123h-1.077zm5.214 0h.96l.517 2.127.521-2.127h.824l.519 2.105.52-2.105h.96l-.814 3.087H3.694l-.521-2.123-.518 2.123H1.577z" style="font-style:normal;font-variant:normal;font-weight:700;font-stretch:normal;font-family:sans-serif;-inkscape-font-specification:'sans-serif Bold'" aria-label="www" transform="matrix(1.28133 0 0 1.43836 15.843 -8.36)"/></g></svg>