<svg viewBox="0 0 26.458 26.458" xmlns="http://www.w3.org/2000/svg"><path d="M13.215 0A13.23 13.23 0 0 0 0 13.23a13.23 13.23 0 0 0 13.23 13.228A13.23 13.23 0 0 0 26.457 13.23 13.23 13.23 0 0 0 13.23 0a13.23 13.23 0 0 0-.014 0zm-.032 1.323a11.906 11.906 0 0 1 .046 0 11.906 11.906 0 0 1 11.906 11.906A11.906 11.906 0 0 1 13.23 25.135 11.906 11.906 0 0 1 1.323 13.23a11.906 11.906 0 0 1 11.86-11.906Z"/><path style="fill:none;fill-rule:evenodd;stroke:#000;stroke-width:.906449;stroke-opacity:1" d="M13.244 25.414c8.36-8.36 8.722-15.996 0-24.717m-.03 25.065c-8.36-8.36-8.721-15.996 0-24.717"/><path style="fill:none;fill-rule:evenodd;stroke:#000;stroke-width:.719159;stroke-opacity:1" d="M22.199 3.71c-6.219 5.285-11.97 5.268-17.934 0"/><path style="fill:none;fill-rule:evenodd;stroke:#000;stroke-width:.719;stroke-opacity:1;stroke-miterlimit:4;stroke-dasharray:none" d="M22.199 22.752c-6.219-5.285-11.97-5.269-17.934 0"/><path style="opacity:1;fill:#000;fill-opacity:1;stroke:#000;stroke-width:.671628;stroke-opacity:1" d="M13.168.336h.122v25.787h-.122z"/><path d="M1.016 8.368h24.426v9.723H1.016z"/><path style="fill:#fff" d="M2.092 9.372h22.274v7.715H2.092z"/><path d="M5.604 11.686h.96l.518 2.127.52-2.127h.825l.518 2.105.52-2.105h.96l-.813 3.087H8.534l-.52-2.123-.519 2.123H6.418Zm5.215 0h.96l.517 2.127.521-2.127h.824l.518 2.105.521-2.105h.96l-.814 3.087H13.75l-.521-2.123-.518 2.123h-1.078zm5.214 0h.96l.518 2.127.52-2.127h.825l.518 2.105.52-2.105h.96l-.813 3.087h-1.078l-.52-2.123-.519 2.123h-1.077z"/></svg>