<svg viewBox="0 0 100 100" xmlns="http://www.w3.org/2000/svg"><path d="M25.371 2.707c-6.6 0-12 5.398-12 11.998v4.373H74.63c6.6 0 12 5.398 12 11.998v31.847h1.373c6.6 0 11.998-5.398 11.998-11.998v-36.22c0-6.6-5.399-11.998-11.998-11.998Z" style="stroke-width:3.77952"/><path d="M25.371 7.506h62.631c3.96 0 7.2 3.24 7.2 7.199v36.22c0 3.96-3.24 7.2-7.2 7.2h-1.373v-27.05c0-6.599-5.4-11.997-12-11.997H18.172v-4.373c0-3.96 3.24-7.2 7.2-7.2z" style="fill:#fff;stroke-width:3.77952"/><path d="M11.999 19.078h62.63c6.6 0 12 5.4 12 11.999v36.219c0 6.6-5.4 11.999-12 11.999H40.077L16.799 97.293V79.295h-4.8c-6.6 0-11.999-5.4-11.999-12V31.078c0-6.6 5.4-12 11.999-12Z" style="stroke-width:3.77952"/><path d="M11.999 23.877c-3.96 0-7.2 3.24-7.2 7.2v36.219c0 3.96 3.24 7.2 7.2 7.2h9.6v13.079l15.598-12 1.2-1.08h36.232c3.96 0 7.2-3.24 7.2-7.2V31.078c0-3.96-3.24-7.2-7.2-7.2H12" style="fill:#fff;stroke-width:3.77952"/></svg>