<svg xmlns="http://www.w3.org/2000/svg" width="100" height="100" viewBox="0 0 26.458 26.458"><path d="M0 2.038v23.813h26.458V2.038h-3.974c-.108 1.249-3.85 1.249-3.958 0H7.932c-.108 1.249-3.85 1.249-3.958 0z" fill="#13406c"/><path d="M4.895.608H7.01v.862c0 1.323-2.116 1.323-2.116 0zm14.552 0h2.117v.862c0 1.323-2.117 1.323-2.117 0z" fill="#13406c"/><path fill="#fff" d="M1.323 6.007h23.812v19.05H1.323z"/><path d="M13.23 8.217c-1.438 0-2.779.42-3.91 1.139l-1.53-1.53v4.285h4.285l-1.7-1.7a5.808 5.808 0 012.854-.75 5.878 5.878 0 015.871 5.87c0 .772-.153 1.507-.425 2.182l1.26.735c.391-.895.609-1.88.609-2.916 0-4.034-3.282-7.315-7.315-7.315zm2.852 12.433a5.803 5.803 0 01-2.853.753 5.878 5.878 0 01-5.87-5.871c0-.729.139-1.423.382-2.067l-1.258-.759a7.272 7.272 0 00-.568 2.826c0 4.033 3.28 7.314 7.314 7.314a7.259 7.259 0 003.908-1.14l1.531 1.531v-4.285h-4.285z" stroke-width=".267" fill="#13406c" stroke="#13406c"/></svg>