<svg width="100" height="100" viewBox="0 0 100 100" xmlns="http://www.w3.org/2000/svg"><path d="M0 7.703v90h100v-90H84.98c-.41 4.719-14.55 4.719-14.96 0H29.98c-.41 4.719-14.55 4.719-14.96 0z" style="stroke-width:3.77953"/><path d="M18.5 2.297h8v3.26c0 5-8 5-8 0zm55 0h8v3.26c0 5-8 5-8 0z" style="stroke-width:3.77953"/><path style="fill:#fff;stroke-width:3.77953" d="M5 22.703h90v72H5z"/><path d="M50 31.887a26.629 26.629 0 0 0-14.333 4.175l-5.606-5.607v15.71h15.708l-6.236-6.237A21.29 21.29 0 0 1 50 37.178c11.868 0 21.523 9.656 21.523 21.525a21.36 21.36 0 0 1-1.56 7.997l4.62 2.693a26.618 26.618 0 0 0 2.232-10.69c0-14.787-12.03-26.816-26.815-26.816zm10.46 45.582c-3.1 1.742-6.656 2.757-10.459 2.757-11.868 0-21.523-9.656-21.523-21.523 0-2.671.511-5.217 1.403-7.578l-4.613-2.78a26.66 26.66 0 0 0-2.083 10.358c0 14.786 12.029 26.814 26.815 26.814 5.271 0 10.174-1.544 14.325-4.182l5.614 5.616V71.24H54.23z" style="stroke-width:.975084"/></svg>