<svg xmlns="http://www.w3.org/2000/svg" width="28.215" height="24.303" version="1.0"><defs><path id="a" d="M-174.038-59.122h63.848v81.44h-63.848z"/></defs><g style="line-height:1.25;white-space:pre;shape-inside:url(#a)"><path d="M26.218 0C18.81 5.077 15.315 10.154 15.315 16.064c0 4.993 2.746 8.24 6.824 8.24 3.163 0 5.41-2.165 5.41-5.078 0-2.913-2.247-4.91-5.493-4.91l-1.498.083c-.166.083-.25.083-.333.083-.333 0-.5-.25-.5-.749 0-3.579 2.664-7.158 8.49-11.403zM10.903 0C3.496 5.077 0 10.154 0 16.064c0 4.993 2.747 8.24 6.825 8.24 3.163 0 5.41-2.165 5.41-5.078 0-2.913-2.247-4.91-5.493-4.91l-1.498.083c-.167.083-.25.083-.333.083-.333 0-.5-.25-.5-.749 0-3.579 3.413-8.24 8.49-11.403z" style="-inkscape-font-specification:C059" font-family="C059" aria-label="“" font-weight="400" font-size="64" letter-spacing="0" word-spacing="0" fill="#194476"/></g></svg>