<svg width="100" height="100" viewBox="0 0 26.458 26.458" xmlns="http://www.w3.org/2000/svg"><path d="M26.247 13.23A13.018 13.018 0 0 1 13.23 26.246 13.018 13.018 0 0 1 .211 13.23 13.018 13.018 0 0 1 13.229.211a13.018 13.018 0 0 1 13.018 13.018z"/><path d="M24.648 13.44a11.418 11.418 0 0 1-11.419 11.418A11.418 11.418 0 0 1 1.811 13.44 11.418 11.418 0 0 1 13.229 2.022 11.418 11.418 0 0 1 24.648 13.44z" style="fill:#fff"/><path d="M13.23 13.44V2.022c3.152 0 6.007 1.278 8.073 3.344z" style="fill:#ccc"/><path d="M12.69 2.022h1.078V5.71H12.69zm0 19.148h1.078v3.688H12.69zm-7.191-8.269v1.078H1.811V12.9zm19.149 0v1.078h-3.689V12.9zm-10.173.539a1.246 1.246 0 0 1-1.246 1.246 1.246 1.246 0 0 1-1.246-1.246 1.246 1.246 0 0 1 1.246-1.246 1.246 1.246 0 0 1 1.246 1.246z"/><path d="m13.03 12.627 5.739-5.739c.47-.269.985-.368 1.504-.495-.08.538-.273 1.016-.495 1.504l-5.738 5.739zM18.89.078c.266-.463 3.291 1.276 3.021 1.743l-.762 1.32c-.125.217-3.14-1.538-3.021-1.744zM4.547 1.823C4.28 1.361 7.298-.389 7.567.08l.762 1.32c.125.216-2.902 1.95-3.02 1.744z"/></svg>