<svg width="100" height="100" viewBox="0 0 100 100" xmlns="http://www.w3.org/2000/svg"><path style="display:inline;fill:#fff;fill-opacity:1;stroke:#13406c;stroke-width:3.9844;stroke-miterlimit:4;stroke-dasharray:none;stroke-opacity:1" d="M25.706 17.558H89.86v80.45H25.706v-80.45z"/><path style="display:inline;fill:#fff;fill-opacity:1;stroke:#13406c;stroke-width:3.9844;stroke-miterlimit:4;stroke-dasharray:none;stroke-opacity:1" d="M18.11 9.962h64.154v80.45H18.11V9.962z"/><path style="fill:#fff;fill-opacity:1;stroke:#13406c;stroke-width:3.9844;stroke-miterlimit:4;stroke-dasharray:none;stroke-opacity:1" d="M10.14 1.992h64.154v80.45H10.14V1.992z"/><path style="display:inline;fill:#13406c;fill-opacity:1;stroke:none;stroke-width:0;stroke-miterlimit:4;stroke-dasharray:none;stroke-opacity:1" d="M21.676 14.044h20.84v4.962h-20.84v-4.962zm0 14.242h36.968c.005 1.603.531 3.728-1.818 2.977h-35.15v-2.977zm0 39.876h39.75c.005 1.604.531 3.728-1.818 2.977H21.676v-2.977zm0-26.584h41.831c.005 1.603.531 3.728-1.818 2.977H21.676v-2.977zm0 13.292h35.557c.005 1.604.53 3.728-1.819 2.977H21.676V54.87z"/></svg>