<svg xmlns="http://www.w3.org/2000/svg" width="100" height="100" viewBox="0 0 26.458 26.458"><g fill="#13406c"><path d="M0 2.038v23.813h26.458V2.038h-3.974c-.108 1.249-3.85 1.249-3.958 0H7.932c-.108 1.249-3.85 1.249-3.958 0z"/><path d="M4.895.608H7.01v.862c0 1.323-2.116 1.323-2.116 0zm14.552 0h2.117v.862c0 1.323-2.117 1.323-2.117 0z"/></g><path fill="#fff" d="M1.323 6.007h23.813v19.05H1.323z"/><path d="M3.969 8.917h2.646v2.646H3.969zm5.291 0h2.646v2.646H9.26zm5.292 0h2.646v2.646h-2.646zm5.292 0h2.646v2.646h-2.646zM3.969 14.209h2.646v2.646H3.969zm5.291 0h2.646v2.646H9.26zm5.292 0h2.646v2.646h-2.646zm5.292 0h2.646v2.646h-2.646zM3.969 19.501h2.646v2.646H3.969zm5.291 0h2.646v2.646H9.26zm5.292 0h2.646v2.646h-2.646zm5.292 0h2.646v2.646h-2.646z" fill="#13406c"/></svg>