<svg viewBox="0 0 100 100" xmlns="http://www.w3.org/2000/svg"><path d="M0 7.703v90h100v-90H84.98c-.41 4.719-14.55 4.719-14.96 0H29.98c-.41 4.719-14.55 4.719-14.96 0z" style="stroke-width:3.77953"/><path d="M18.5 2.297h8v3.26c0 5-8 5-8 0zm55 0h8v3.26c0 5-8 5-8 0z" style="stroke-width:3.77953"/><path d="M5 22.703h90v72H5Z" style="fill:#fff;stroke-width:3.77953"/><path d="M15 33.703h10v10H15Zm20 0h10v10H35zm20 0h10v10H55zm20 0h10v10H75zm-60 20h10v10H15zm20 0h10v10H35zm20 0h10v10H55zm20 0h10v10H75zm-60 20h10v10H15zm20 0h10v10H35zm20 0h10v10H55zm20 0h10v10H75z" style="stroke-width:3.77953"/></svg>