<svg width="100" height="100" viewBox="0 0 100 100" xmlns="http://www.w3.org/2000/svg"><path d="M70 50a20 20 0 0 1-20 20 20 20 0 0 1-20-20 20 20 0 0 1 20-20 20 20 0 0 1 20 20zm28.557 1.16c2.74.07 1.192 12.435-1.48 11.819l-16.03-3.7c-2.67-.616-1.676-8.604 1.064-8.535zM79.931 89.565c1.695 2.156-9.31 8.877-10.44 6.38l-6.776-14.991c-1.13-2.499 5.358-6.48 7.051-4.324zM38.26 99.068c-.603 2.675-12.753-1.73-11.521-4.18l7.39-14.698c1.231-2.45 8.353.156 7.75 2.83zM4.81 72.51C2.362 73.741-1.81 61.508.864 60.905l16.049-3.619c2.674-.603 5.046 6.602 2.597 7.834zm-.02-43.073C2.34 28.205 9.394 17.36 11.47 19.15l12.465 10.737c2.077 1.79-1.997 8.172-4.448 6.94zm33.425-26.59C37.612.171 50.497-1.118 50.43 1.623l-.408 16.446c-.068 2.74-7.585 3.5-8.189.825zm41.655 9.446c1.686-2.163 10.761 7.085 8.598 8.77L75.49 31.172c-2.164 1.685-7.415-3.739-5.73-5.902zm18.686 38.419c2.74-.068 1.201 12.848-1.47 12.231l-16.029-3.7c-2.671-.616-1.687-8.056 1.053-8.124z"/></svg>