<svg xmlns="http://www.w3.org/2000/svg" width="100" height="100" viewBox="0 0 26.458 26.458"><path d="M3.175 5.048h16.57a3.184 3.184 0 013.175 3.174v9.583a3.184 3.184 0 01-3.174 3.175h-9.142l-6.16 4.762V20.98h-1.27A3.184 3.184 0 010 17.805V8.222a3.184 3.184 0 013.175-3.174z" fill="#13406c"/><path d="M3.175 6.318A1.91 1.91 0 001.27 8.222v9.583a1.91 1.91 0 001.905 1.905h2.54v3.46l4.127-3.174.317-.286h9.587a1.91 1.91 0 001.905-1.905V8.222a1.91 1.91 0 00-1.905-1.904H3.175" fill="#fff"/><path d="M6.713.716a3.184 3.184 0 00-3.175 3.175v1.157h16.208a3.184 3.184 0 013.175 3.174v8.427h.363a3.184 3.184 0 003.174-3.175V3.891A3.184 3.184 0 0023.284.716z" fill="#13406c"/><path d="M6.713 1.986h16.57A1.91 1.91 0 0125.19 3.89v9.583a1.91 1.91 0 01-1.905 1.905h-.363V8.222a3.184 3.184 0 00-3.175-3.174H4.808V3.89a1.91 1.91 0 011.905-1.905z" fill="#fff"/></svg>