<svg xmlns="http://www.w3.org/2000/svg" width="100" height="100" viewBox="0 0 26.458 26.458"><path style="fill:#13406c;stroke-width:1.759;fill-opacity:1" d="M54.585 86.83v23.812h26.458V86.83H77.07c-.109 1.248-3.85 1.248-3.959 0H62.517c-.108 1.248-3.85 1.248-3.958 0z" transform="translate(-54.585 -84.792)"/><path style="fill:#13406c;fill-opacity:1;stroke-width:2.71216" d="M59.48 85.4h2.116v.862c0 1.323-2.116 1.323-2.116 0zm14.552 0h2.117v.862c0 1.323-2.117 1.323-2.117 0z" transform="translate(-54.585 -84.792)"/><path style="fill:#fff;fill-opacity:1;stroke-width:18.8005" d="M1.323 6.007h23.813v19.05H1.323z"/><g style="display:inline"><path style="fill:#13406c;fill-opacity:1;stroke-width:1.54835" d="M3.969 8.917h2.646v2.646H3.969zm5.291 0h2.646v2.646H9.26zm5.292 0h2.646v2.646h-2.646zm5.292 0h2.646v2.646h-2.646zM3.969 14.209h2.646v2.646H3.969zm5.291 0h2.646v2.646H9.26zm5.292 0h2.646v2.646h-2.646zm5.292 0h2.646v2.646h-2.646zM3.969 19.501h2.646v2.646H3.969zm5.291 0h2.646v2.646H9.26zm5.292 0h2.646v2.646h-2.646zm5.292 0h2.646v2.646h-2.646z"/></g></svg>