<svg xmlns="http://www.w3.org/2000/svg" width="28.215" height="24.303" version="1.0"><defs><path id="a" d="M-174.038-59.122h63.848v81.44h-63.848z"/></defs><g style="line-height:1.25;white-space:pre;shape-inside:url(#a)"><path d="M1.998 24.303C9.405 19.226 12.9 14.15 12.9 8.24 12.9 3.246 10.154 0 6.076 0 2.913 0 .666 2.164.666 5.077s2.247 4.91 5.493 4.91l1.498-.083c.167-.083.25-.083.333-.083.333 0 .5.25.5.75 0 3.578-2.664 7.157-8.49 11.402zm15.314 0C24.72 19.226 28.215 14.15 28.215 8.24 28.215 3.246 25.47 0 21.39 0c-3.162 0-5.41 2.164-5.41 5.077s2.248 4.91 5.494 4.91l1.498-.083c.166-.083.25-.083.333-.083.333 0 .5.25.5.75 0 3.578-3.413 8.24-8.49 11.402z" style="-inkscape-font-specification:C059" font-family="C059" aria-label="“" font-weight="400" font-size="64" letter-spacing="0" word-spacing="0" fill="#194476"/></g></svg>