<svg xmlns="http://www.w3.org/2000/svg" width="28.215" height="24.303" version="1.0"><defs><path id="a" d="M-174.038-59.122h63.848v81.44h-63.848z"/></defs><g style="font-style:normal;font-weight:400;font-size:64px;line-height:1.25;font-family:sans-serif;letter-spacing:0;word-spacing:0;white-space:pre;shape-inside:url(#a);fill:#194476;fill-opacity:1;stroke:none" transform="rotate(180 35.054 25.076)"><path d="M68.11 25.848c-7.407 5.077-10.903 10.154-10.903 16.064 0 4.994 2.746 8.24 6.825 8.24 3.163 0 5.41-2.164 5.41-5.077s-2.247-4.911-5.493-4.911l-1.499.083c-.166.083-.25.083-.333.083-.332 0-.499-.25-.499-.749 0-3.579 2.663-7.157 8.49-11.402zm-15.314 0c-7.408 5.077-10.904 10.154-10.904 16.064 0 4.994 2.747 8.24 6.825 8.24 3.163 0 5.41-2.164 5.41-5.077s-2.247-4.911-5.493-4.911l-1.498.083c-.167.083-.25.083-.333.083-.333 0-.5-.25-.5-.749 0-3.579 3.413-8.24 8.49-11.402z" style="font-style:normal;font-variant:normal;font-weight:400;font-stretch:normal;font-size:64px;font-family:C059;-inkscape-font-specification:C059;fill:#194476;fill-opacity:1;stroke-width:1.30049" aria-label="“"/></g></svg>