<svg xmlns="http://www.w3.org/2000/svg" width="100" height="100" viewBox="0 0 26.458 26.458"><circle style="fill:#13406c;fill-opacity:1;stroke-width:.987473" cx="-79.87" cy="41.903" r="13.018" transform="translate(93.099 -28.463)"/><g style="display:inline"><circle style="fill:#fff;fill-opacity:1;stroke-width:.866113" cx="13.229" cy="13.44" r="11.418"/></g><g style="display:inline"><path style="display:inline;fill:#6e4307;fill-opacity:.25098;stroke-width:.866113" d="M13.23 13.44V2.022c3.152 0 6.007 1.278 8.073 3.344z"/></g><g style="display:inline"><path style="fill:#13406c;fill-opacity:1;stroke-width:.322793" d="M12.69 1.036h1.078v3.688H12.69zm0 21.12h1.078v3.688H12.69z"/><path style="fill:#13406c;fill-opacity:1;stroke-width:.322789" transform="rotate(90)" d="M12.901-4.514h1.078v3.688h-1.078z"/><path style="fill:#13406c;fill-opacity:1;stroke-width:.322793" transform="rotate(90)" d="M12.901-25.633h1.078v3.688h-1.078z"/><circle style="display:inline;fill:#13406c;fill-opacity:1;stroke-width:.0945192" cx="13.229" cy="13.44" r="1.246"/></g><path style="fill:#13406c;fill-opacity:1;stroke-width:.850369" d="m13.03 12.627 5.739-5.739c.47-.269.985-.368 1.504-.495-.08.538-.273 1.016-.495 1.504l-5.738 5.739z"/><g style="display:inline"><path d="M18.89.078c.266-.463 3.291 1.276 3.021 1.743l-.762 1.32c-.125.217-3.14-1.538-3.021-1.744zM4.547 1.823C4.28 1.361 7.298-.389 7.567.08l.762 1.32c.125.216-2.902 1.95-3.02 1.744z" style="fill:#13406c;fill-opacity:1;stroke-width:.984068"/></g></svg>