<svg xmlns="http://www.w3.org/2000/svg" width="50" height="50" viewBox="0 0 50 50"><path d="M49.343 44.301L36.506 31.464a2.184 2.184 0 00-.95-.555 19.436 19.436 0 003.625-11.32C39.181 8.774 30.408 0 19.591 0 8.773 0 0 8.773 0 19.59s8.773 19.59 19.59 19.59c4.225 0 8.125-1.35 11.328-3.627.1.36.284.68.552.951l12.837 12.837c1.072 1.072 3.056.808 4.449-.588 1.392-1.392 1.656-3.38.587-4.452zM19.591 32.056c-6.882 0-12.467-5.585-12.467-12.466 0-6.882 5.585-12.467 12.467-12.467 6.881 0 12.466 5.585 12.466 12.467 0 6.88-5.585 12.466-12.466 12.466z"/></svg>