<svg xmlns="http://www.w3.org/2000/svg" width="211.998" height="64" viewBox="0 0 56.091 16.933"><g transform="translate(-69.397 -81.492)"><circle fill="#FFF" cx="77.939" cy="89.959" r="7.63" style="fill:#f4f7fb;fill-opacity:0;stroke-width:.264583"/><path style="fill:#000;fill-opacity:1;stroke-width:.264583" d="M77.848 81.492c-2.349 0-4.33.822-5.942 2.464a8.502 8.502 0 0 0-1.867 2.775 8.346 8.346 0 0 0-.642 3.228 8.304 8.304 0 0 0 2.487 5.964 8.517 8.517 0 0 0 2.752 1.86 8.227 8.227 0 0 0 3.212.642 8.428 8.428 0 0 0 3.25-.65 8.702 8.702 0 0 0 2.813-1.875 7.772 7.772 0 0 0 1.807-2.684 8.64 8.64 0 0 0 .612-3.257c0-1.15-.208-2.235-.62-3.259a8.142 8.142 0 0 0-1.814-2.729c-1.663-1.652-3.68-2.48-6.048-2.48zm.03 1.527c1.915 0 3.553.68 4.915 2.041a6.77 6.77 0 0 1 1.495 2.238c.343.837.514 1.724.514 2.661 0 1.946-.66 3.563-1.98 4.854a7.313 7.313 0 0 1-2.305 1.527 6.833 6.833 0 0 1-2.639.528 6.788 6.788 0 0 1-2.63-.521 6.976 6.976 0 0 1-2.253-1.512 7.014 7.014 0 0 1-1.535-2.253 6.627 6.627 0 0 1-.537-2.623c0-.917.179-1.797.537-2.638a7.28 7.28 0 0 1 1.535-2.276c1.32-1.35 2.948-2.026 4.883-2.026z"/><path style="fill:#000;fill-opacity:1;stroke-width:.264583" d="m82.656 88.553-1.12.59c-.12-.252-.269-.429-.445-.53a1.028 1.028 0 0 0-.507-.15c-.756 0-1.134.498-1.134 1.496 0 .454.096.816.287 1.088.192.273.474.409.847.409.494 0 .842-.242 1.043-.726l1.058.53a2.6 2.6 0 0 1-.937.975 2.443 2.443 0 0 1-1.285.355c-.766 0-1.378-.232-1.836-.696-.46-.463-.689-1.108-.689-1.935 0-.806.235-1.446.704-1.92.468-.473 1.06-.71 1.776-.71 1.048 0 1.795.407 2.238 1.224zm-4.884 0-1.134.59c-.121-.252-.27-.429-.446-.53-.176-.1-.34-.15-.491-.15-.756 0-1.134.498-1.134 1.496 0 .454.095.816.287 1.088.191.273.474.409.847.409.494 0 .841-.242 1.043-.726l1.043.53a2.487 2.487 0 0 1-2.222 1.33c-.756 0-1.366-.232-1.83-.696-.463-.463-.695-1.108-.695-1.935 0-.806.234-1.446.703-1.92.468-.473 1.06-.71 1.776-.71 1.049 0 1.8.407 2.253 1.224z"/></g><path style="fill:#000;fill-opacity:1" d="M33.042 12.329c0-3.008 1.485-4.514 4.458-4.514s4.457 1.504 4.457 4.514c0 2.971-1.486 4.457-4.457 4.457s-4.458-1.486-4.458-4.457zm13.087 8.228v13.085h-3.656v15.542h-9.944V33.643h-3.656V20.557c0-.572.2-1.057.599-1.457.401-.399.887-.6 1.457-.6h13.144c.533 0 1.01.2 1.428.6.417.4.628.886.628 1.457z" transform="translate(18.123 .926) scale(.26458)"/><path style="fill:#000;fill-opacity:1" d="M31.943 0C23.104 0 15.602 3.085 9.43 9.258 3.145 15.658 0 23.239 0 32c0 8.762 3.145 16.284 9.43 22.57C15.79 60.856 23.294 64 31.943 64c8.8 0 16.436-3.182 22.912-9.545C60.951 48.475 64 40.991 64 32c0-8.952-3.106-16.532-9.314-22.742C48.514 3.086 40.93 0 31.943 0zm.114 5.771c7.238 0 13.41 2.553 18.513 7.657 5.103 5.106 7.657 11.294 7.657 18.57 0 7.391-2.514 13.506-7.543 18.344-5.295 5.22-11.506 7.828-18.63 7.828-7.161 0-13.332-2.59-18.513-7.772-5.18-5.178-7.77-11.31-7.77-18.396 0-7.047 2.609-13.238 7.829-18.572 5.029-5.104 11.18-7.66 18.457-7.66z" transform="translate(19.579) scale(.26458)"/><path style="fill:#000;fill-opacity:1" d="M23.271 23.985c.609-3.924 2.189-6.962 4.742-9.114 2.552-2.152 5.656-3.228 9.314-3.228 5.027 0 9.029 1.62 12 4.856 2.971 3.238 4.457 7.391 4.457 12.457 0 4.915-1.543 9-4.627 12.256-3.088 3.256-7.086 4.886-12.002 4.886-3.619 0-6.743-1.085-9.371-3.257-2.629-2.172-4.209-5.257-4.743-9.257H31.1c.19 3.886 2.533 5.829 7.029 5.829 2.246 0 4.057-.972 5.428-2.914 1.373-1.942 2.059-4.534 2.059-7.771 0-3.391-.629-5.971-1.885-7.743-1.258-1.771-3.066-2.657-5.43-2.657-4.268 0-6.667 1.885-7.2 5.656h2.343l-6.342 6.343-6.343-6.343z" transform="translate(37.703 .926) scale(.26458)"/><path style="fill:#000;fill-opacity:1" d="M31.943 0C23.143 0 15.64 3.105 9.43 9.316 3.145 15.716 0 23.28 0 32.002c0 8.763 3.145 16.283 9.43 22.568C15.79 60.856 23.294 64 31.943 64c8.836 0 16.475-3.162 22.912-9.486C60.951 48.457 64 40.954 64 32c0-8.952-3.106-16.514-9.314-22.686C48.475 3.104 40.894 0 31.943 0zm.114 5.771c7.275 0 13.446 2.57 18.513 7.715 5.103 5.028 7.657 11.201 7.657 18.514 0 7.353-2.514 13.468-7.543 18.344-5.295 5.219-11.506 7.828-18.63 7.828-7.161 0-13.332-2.59-18.513-7.772-5.18-5.143-7.77-11.275-7.77-18.4 0-7.046 2.609-13.218 7.829-18.514 5.029-5.143 11.18-7.715 18.457-7.715z" transform="translate(39.158) scale(.26458)"/></svg>