<svg xmlns="http://www.w3.org/2000/svg" width="100" height="100" viewBox="0 0 26.458 26.458"><g style="display:inline"><path style="fill:#13406c;fill-opacity:1;stroke-width:.317472" d="M88.723 53.772h16.571a3.184 3.184 0 0 1 3.175 3.175v9.583a3.184 3.184 0 0 1-3.175 3.174h-9.142l-6.159 4.762v-4.762h-1.27a3.184 3.184 0 0 1-3.174-3.174v-9.583a3.184 3.184 0 0 1 3.174-3.175z" transform="translate(-85.549 -48.724)"/><path style="fill:#fff;fill-opacity:1;stroke-width:.317472" d="M88.723 55.042a1.91 1.91 0 0 0-1.905 1.905v9.583a1.91 1.91 0 0 0 1.905 1.904h2.54v3.46l4.127-3.174.318-.286h9.586a1.91 1.91 0 0 0 1.905-1.904v-9.583a1.91 1.91 0 0 0-1.905-1.905h-16.57" transform="translate(-85.549 -48.724)"/></g><g style="display:inline"><path style="display:inline;fill:#13406c;fill-opacity:1;stroke-width:.317471" d="M92.261 49.44a3.184 3.184 0 0 0-3.175 3.175v1.157h16.208a3.184 3.184 0 0 1 3.175 3.174v8.427h.363a3.184 3.184 0 0 0 3.175-3.175v-9.583a3.184 3.184 0 0 0-3.175-3.175z" transform="translate(-85.549 -48.724)"/><path style="display:inline;fill:#fff;fill-opacity:1;stroke-width:.317471" d="M92.261 50.71h16.571a1.91 1.91 0 0 1 1.905 1.905v9.583a1.91 1.91 0 0 1-1.905 1.905h-.363v-7.157a3.184 3.184 0 0 0-3.175-3.174H90.357v-1.157a1.91 1.91 0 0 1 1.904-1.905z" transform="translate(-85.549 -48.724)"/></g></svg>