<svg xmlns="http://www.w3.org/2000/svg" width="100" height="100" viewBox="0 0 26.458 26.458"><path style="display:inline;fill:#13406c;stroke-width:1.759;fill-opacity:1" d="M0 2.038v23.813h26.458V2.038h-3.974c-.108 1.249-3.85 1.249-3.958 0H7.932c-.108 1.249-3.85 1.249-3.958 0z"/><path style="display:inline;fill:#13406c;fill-opacity:1;stroke-width:2.71216" d="M4.895.608H7.01v.862c0 1.323-2.116 1.323-2.116 0zm14.552 0h2.117v.862c0 1.323-2.117 1.323-2.117 0z"/><path style="display:inline;fill:#fff;fill-opacity:1;stroke-width:18.8005" d="M1.323 6.007h23.812v19.05H1.323z"/><g style="stroke-width:1.00157;stroke-miterlimit:4;stroke-dasharray:none"><path d="M32.5 4.999a27.31 27.31 0 0 0-14.699 4.282l-5.75-5.75v16.11h16.11l-6.395-6.395a21.834 21.834 0 0 1 10.734-2.82c12.171 0 22.073 9.902 22.073 22.074 0 2.899-.577 5.664-1.599 8.202l4.738 2.762A27.299 27.299 0 0 0 60 32.5C60 17.336 47.663 4.999 32.5 4.999zm10.727 46.747c-3.179 1.786-6.826 2.827-10.726 2.827-12.171 0-22.073-9.902-22.073-22.073 0-2.739.524-5.35 1.439-7.771l-4.731-2.851A27.34 27.34 0 0 0 5 32.5C5 47.664 17.336 60 32.5 60c5.406 0 10.434-1.584 14.691-4.289l5.758 5.759V45.358H36.838z" style="fill:#13406c;fill-opacity:1;stroke:#13406c;stroke-width:1.00157;stroke-miterlimit:4;stroke-dasharray:none;stroke-opacity:1" transform="translate(4.585 6.887) scale(.26599)" fill="#555753"/></g></svg>