<?xml version="1.0" encoding="UTF-8" standalone="no"?>
<svg
   width="26.458334mm"
   height="26.458334mm"
   viewBox="0 0 26.458334 26.458334"
   version="1.1"
   id="svg8"
   sodipodi:docname="icon-chronometer.svg"
   inkscape:version="1.1 (c4e8f9ed74, 2021-05-24)"
   xmlns:inkscape="http://www.inkscape.org/namespaces/inkscape"
   xmlns:sodipodi="http://sodipodi.sourceforge.net/DTD/sodipodi-0.dtd"
   xmlns="http://www.w3.org/2000/svg"
   xmlns:svg="http://www.w3.org/2000/svg"
   xmlns:rdf="http://www.w3.org/1999/02/22-rdf-syntax-ns#"
   xmlns:cc="http://creativecommons.org/ns#"
   xmlns:dc="http://purl.org/dc/elements/1.1/">
  <defs
     id="defs2" />
  <sodipodi:namedview
     id="base"
     pagecolor="#ffffff"
     bordercolor="#666666"
     borderopacity="1.0"
     inkscape:pageopacity="0.0"
     inkscape:pageshadow="2"
     inkscape:zoom="0.98994949"
     inkscape:cx="138.3909"
     inkscape:cy="71.720831"
     inkscape:document-units="mm"
     inkscape:current-layer="svg8"
     inkscape:document-rotation="0"
     showgrid="false"
     fit-margin-top="0"
     fit-margin-left="0"
     fit-margin-right="0"
     fit-margin-bottom="0"
     inkscape:window-width="1920"
     inkscape:window-height="1019"
     inkscape:window-x="0"
     inkscape:window-y="33"
     inkscape:window-maximized="1"
     inkscape:pagecheckerboard="0" />
  <metadata
     id="metadata5">
    <rdf:RDF>
      <cc:Work
         rdf:about="">
        <dc:format>image/svg+xml</dc:format>
        <dc:type
           rdf:resource="http://purl.org/dc/dcmitype/StillImage" />
      </cc:Work>
    </rdf:RDF>
  </metadata>
  <path
     id="path835"
     d="M 26.247437,13.229167 A 13.01827,13.01827 0 0 1 13.229167,26.247437 13.01827,13.01827 0 0 1 0.21089745,13.229167 13.01827,13.01827 0 0 1 13.229167,0.21089745 13.01827,13.01827 0 0 1 26.247437,13.229167 Z" />
  <path
     id="path835-3"
     d="M 24.647516,13.440065 A 11.418339,11.418339 0 0 1 13.229177,24.858404 11.418339,11.418339 0 0 1 1.8108387,13.440065 11.418339,11.418339 0 0 1 13.229177,2.0217266 11.418339,11.418339 0 0 1 24.647516,13.440065 Z"
     style="fill: #fff;" />
  <path
     id="path835-3-3"
     d="M 13.229178,13.440063 V 2.0217252 c 3.153086,0 6.00767,1.2780409 8.073983,3.3443541 z"
     style="fill: #ccc;" />
  <path
     id="rect869"
     d="m 12.69033,2.0217266 h 1.077695 V 5.7099637 H 12.69033 Z" />
  <path
     id="rect869-7"
     d="m 12.690322,21.170166 h 1.077695 v 3.688238 h -1.077695 z" />
  <path
     id="rect869-5"
     d="m 5.4989797,12.901218 v 1.077695 h -3.688141 v -1.077695 z" />
  <path
     id="rect869-5-3"
     d="m 24.647516,12.901218 v 1.077695 h -3.688237 v -1.077695 z" />
  <path
     id="path835-3-9"
     d="m 14.475263,13.440065 a 1.2460854,1.2460854 0 0 1 -1.246086,1.246086 1.2460854,1.2460854 0 0 1 -1.246085,-1.246086 1.2460854,1.2460854 0 0 1 1.246085,-1.246085 1.2460854,1.2460854 0 0 1 1.246086,1.246085 z" />
  <path
     id="rect992-0"
     d="m 13.030437,12.626754 5.738579,-5.7385802 c 0.469381,-0.268892 0.985206,-0.3685206 1.504306,-0.4950576 -0.08015,0.5375361 -0.273766,1.0157074 -0.495057,1.5043038 l -5.73858,5.738582 z" />
  <path
     d="m 18.89036,0.07765367 c 0.2657,-0.46251326 3.290733,1.27633923 3.021097,1.74377283 L 21.148803,3.1410654 C 21.023826,3.357561 18.009618,1.6029636 18.127707,1.3972924 Z M 4.5465475,1.8233946 C 4.2798643,1.3608813 7.2980089,-0.38879582 7.5676442,0.07863773 L 8.3293149,1.3982765 C 8.4542918,1.6147723 5.4272907,3.3487044 5.3082181,3.1430336 Z"
     id="path12" />
</svg>
