<?xml version="1.0" encoding="UTF-8" standalone="no"?>
<svg
   xmlns:dc="http://purl.org/dc/elements/1.1/"
   xmlns:cc="http://creativecommons.org/ns#"
   xmlns:rdf="http://www.w3.org/1999/02/22-rdf-syntax-ns#"
   xmlns:svg="http://www.w3.org/2000/svg"
   xmlns="http://www.w3.org/2000/svg"
   xmlns:sodipodi="http://sodipodi.sourceforge.net/DTD/sodipodi-0.dtd"
   xmlns:inkscape="http://www.inkscape.org/namespaces/inkscape"
   width="26.458334mm"
   height="26.458334mm"
   viewBox="0 0 26.458334 26.458334"
   version="1.1"
   id="svg8"
   inkscape:version="1.0.2 (e86c870879, 2021-01-15)"
   sodipodi:docname="website-light-theme.svg">
  <defs
     id="defs2">
    <rect
       x="-9.8634989"
       y="11.559539"
       width="33.374422"
       height="14.267064"
       id="rect851" />
    <rect
       x="-36.176111"
       y="17.08593"
       width="28.180493"
       height="11.943231"
       id="rect1142" />
  </defs>
  <sodipodi:namedview
     id="base"
     pagecolor="#ffffff"
     bordercolor="#666666"
     borderopacity="1.0"
     inkscape:pageopacity="0.0"
     inkscape:pageshadow="2"
     inkscape:zoom="7.919596"
     inkscape:cx="34.331962"
     inkscape:cy="60.489796"
     inkscape:document-units="mm"
     inkscape:current-layer="layer6"
     inkscape:document-rotation="0"
     showgrid="false"
     fit-margin-top="0"
     fit-margin-left="0"
     fit-margin-right="0"
     fit-margin-bottom="0"
     inkscape:window-width="1920"
     inkscape:window-height="1019"
     inkscape:window-x="0"
     inkscape:window-y="33"
     inkscape:window-maximized="1" />
  <metadata
     id="metadata5">
    <rdf:RDF>
      <cc:Work
         rdf:about="">
        <dc:format>image/svg+xml</dc:format>
        <dc:type
           rdf:resource="http://purl.org/dc/dcmitype/StillImage" />
        <dc:title />
      </cc:Work>
    </rdf:RDF>
  </metadata>
  <g
     inkscape:label="Calque 1"
     inkscape:groupmode="layer"
     id="layer1"
     transform="translate(97.083835,-20.289216)">
    <path
       id="path833"
       style="opacity:1;fill:#13406c;stroke-width:0.451015"
       d="M 49.947266 0 A 50.000001 50.000001 0 0 0 0 50 A 50.000001 50.000001 0 0 0 50 100 A 50.000001 50.000001 0 0 0 100 50 A 50.000001 50.000001 0 0 0 50 0 A 50.000001 50.000001 0 0 0 49.947266 0 z M 49.826172 5 A 45 45 0 0 1 50 5 A 45 45 0 0 1 95 50 A 45 45 0 0 1 50 95 A 45 45 0 0 1 5 50 A 45 45 0 0 1 49.826172 5 z "
       transform="matrix(0.26458333,0,0,0.26458333,-97.083835,20.289216)" />
  </g>
  <g
     inkscape:groupmode="layer"
     id="layer2"
     inkscape:label="Calque 2">
    <path
       id="path970-2-9"
       style="fill:none;fill-rule:evenodd;stroke:#13406c;stroke-width:0.906449;stroke-opacity:1"
       d="m 13.244036,25.413793 c 8.359996,-8.359996 8.721527,-15.9957486 0,-24.71727568"
       sodipodi:nodetypes="cc" />
    <path
       id="path970-2-9-2"
       style="fill:none;fill-rule:evenodd;stroke:#13406c;stroke-width:0.906449;stroke-opacity:1"
       d="m 13.214298,25.761814 c -8.3599969,-8.359996 -8.7215279,-15.9957492 0,-24.7172766"
       sodipodi:nodetypes="cc" />
  </g>
  <g
     inkscape:groupmode="layer"
     id="layer3"
     inkscape:label="Calque 3">
    <path
       id="path970"
       style="fill:none;fill-rule:evenodd;stroke:#13406c;stroke-width:0.719159;stroke-opacity:1"
       d="m 22.198984,3.7095395 c -6.218834,5.2857962 -11.970146,5.2688909 -17.9344458,0"
       sodipodi:nodetypes="cc" />
    <path
       id="path970-6"
       style="fill:none;fill-rule:evenodd;stroke:#13406c;stroke-width:0.719159;stroke-opacity:1"
       d="m 22.198984,22.752331 c -6.218834,-5.285797 -11.970146,-5.268891 -17.934446,0"
       sodipodi:nodetypes="cc" />
  </g>
  <g
     inkscape:groupmode="layer"
     id="layer4"
     inkscape:label="Calque 4">
    <rect
       style="opacity:1;fill:#13406c;fill-opacity:1;stroke:#13406c;stroke-width:0.671628;stroke-opacity:1"
       id="rect1076"
       width="0.1221219"
       height="25.786715"
       x="13.168105"
       y="0.33580831" />
    <rect
       style="fill:#13406c;fill-opacity:1;stroke:#13406c;stroke-width:0.671628;stroke-opacity:1"
       id="rect1076-7"
       width="0.12212192"
       height="25.786715"
       x="13.168104"
       y="-26.122524"
       transform="rotate(90)" />
  </g>
  <g
     inkscape:groupmode="layer"
     id="layer5"
     inkscape:label="Calque 5">
    <rect
       style="fill:#13406c;fill-opacity:1;stroke:none;stroke-width:1.26573;stroke-opacity:1"
       id="rect1074"
       width="24.425537"
       height="9.7229261"
       x="1.016398"
       y="8.3677025" />
    <rect
       style="fill:#ffffff;fill-opacity:1;stroke:none;stroke-width:1.07668;stroke-opacity:1"
       id="rect1074-0"
       width="22.274382"
       height="7.7146602"
       x="2.0919764"
       y="9.3718357" />
  </g>
  <g
     inkscape:groupmode="layer"
     id="layer6"
     inkscape:label="Calque 6">
    <g
       aria-label="www"
       transform="matrix(1.2813289,0,0,1.4383599,15.843288,-8.3594635)"
       id="text849"
       style="font-style:normal;font-weight:normal;font-size:5.64444px;line-height:1.25;font-family:sans-serif;letter-spacing:0px;word-spacing:0px;white-space:pre;shape-inside:url(#rect851);fill:#13406c;fill-opacity:1;stroke:none">
      <path
         d="M -9.6648439,13.465797 H -8.70573 l 0.5181419,2.12769 0.5208981,-2.12769 h 0.8240662 l 0.518142,2.105641 0.520898,-2.105641 h 0.9591139 l -0.813042,3.086803 h -1.077625 L -7.256035,14.430423 -7.7741769,16.5526 H -8.851802 Z"
         style="font-style:normal;font-variant:normal;font-weight:bold;font-stretch:normal;font-family:sans-serif;-inkscape-font-specification:'sans-serif Bold'"
         id="path857" />
      <path
         d="m -4.4503511,13.465797 h 0.9591139 l 0.5181419,2.12769 0.5208981,-2.12769 h 0.8240662 l 0.518142,2.105641 0.520898,-2.105641 H 0.37002286 L -0.44301906,16.5526 H -1.5206441 L -2.0415422,14.430423 -2.5596841,16.5526 h -1.0776251 z"
         style="font-style:normal;font-variant:normal;font-weight:bold;font-stretch:normal;font-family:sans-serif;-inkscape-font-specification:'sans-serif Bold'"
         id="path859" />
      <path
         d="m 0.7641417,13.465797 h 0.9591139 l 0.5181419,2.12769 0.5208981,-2.12769 h 0.8240662 l 0.518142,2.105641 0.520898,-2.105641 H 5.5845157 L 4.7714737,16.5526 H 3.6938487 L 3.1729506,14.430423 2.6548087,16.5526 H 1.5771836 Z"
         style="font-style:normal;font-variant:normal;font-weight:bold;font-stretch:normal;font-family:sans-serif;-inkscape-font-specification:'sans-serif Bold'"
         id="path861" />
    </g>
  </g>
</svg>
