<?xml version="1.0" encoding="UTF-8" standalone="no"?>
<svg
   version="1.1"
   x="0px"
   y="0px"
   width="100"
   height="100"
   viewBox="0 0 99.999998 100"
   xml:space="preserve"
   id="svg2"
   inkscape:version="1.1 (c4e8f9ed74, 2021-05-24)"
   sodipodi:docname="icon-search.svg"
   xmlns:inkscape="http://www.inkscape.org/namespaces/inkscape"
   xmlns:sodipodi="http://sodipodi.sourceforge.net/DTD/sodipodi-0.dtd"
   xmlns="http://www.w3.org/2000/svg"
   xmlns:svg="http://www.w3.org/2000/svg"
   xmlns:rdf="http://www.w3.org/1999/02/22-rdf-syntax-ns#"
   xmlns:cc="http://creativecommons.org/ns#"
   xmlns:dc="http://purl.org/dc/elements/1.1/"><metadata
     id="metadata11"><rdf:RDF><cc:Work
         rdf:about=""><dc:format>image/svg+xml</dc:format><dc:type
           rdf:resource="http://purl.org/dc/dcmitype/StillImage" /></cc:Work></rdf:RDF></metadata><defs
     id="defs832" /><sodipodi:namedview
     pagecolor="#ffffff"
     bordercolor="#666666"
     borderopacity="1"
     objecttolerance="10"
     gridtolerance="10"
     guidetolerance="10"
     inkscape:pageopacity="0"
     inkscape:pageshadow="2"
     inkscape:window-width="1920"
     inkscape:window-height="1019"
     id="namedview7"
     showgrid="false"
     inkscape:zoom="2.4583333"
     inkscape:cx="57.355933"
     inkscape:cy="70.779662"
     inkscape:window-x="0"
     inkscape:window-y="33"
     inkscape:window-maximized="1"
     inkscape:current-layer="svg2"
     inkscape:document-rotation="0"
     fit-margin-top="0"
     fit-margin-left="0"
     fit-margin-right="0"
     fit-margin-bottom="0"
     inkscape:pagecheckerboard="0" /><path
     id="search-big"
     d="M 98.6868,88.601947 73.012416,62.928895 C 72.478127,62.394633 71.829857,62.024212 71.110347,61.817631 75.662492,55.427861 78.362434,47.627642 78.362434,39.179185 78.362434,17.545151 60.816373,0 39.181217,0 17.546061,0 0,17.545151 0,39.179185 0,60.813219 17.546061,78.35837 39.181217,78.35837 c 8.448895,0 16.249518,-2.699802 22.653867,-7.251711 0.199468,0.719473 0.569909,1.360586 1.104198,1.901971 l 25.674382,25.673052 c 2.144282,2.144168 6.11227,1.617038 8.8977,-1.175375 2.785426,-2.785285 3.312596,-6.760191 1.175436,-8.90436 z M 39.181217,64.111394 c -13.763293,0 -24.933502,-11.16963 -24.933502,-24.932209 0,-13.762579 11.170209,-24.932209 24.933502,-24.932209 13.763293,0 24.933502,11.16963 24.933502,24.932209 0,13.762579 -11.170209,24.932209 -24.933502,24.932209 z" /></svg>
