<?xml version="1.0" encoding="UTF-8" standalone="no"?>
<svg
   width="26.458334mm"
   height="26.458334mm"
   viewBox="0 0 26.458334 26.458334"
   version="1.1"
   id="svg8"
   inkscape:version="1.1 (c4e8f9ed74, 2021-05-24)"
   sodipodi:docname="icon-website.svg"
   xmlns:inkscape="http://www.inkscape.org/namespaces/inkscape"
   xmlns:sodipodi="http://sodipodi.sourceforge.net/DTD/sodipodi-0.dtd"
   xmlns="http://www.w3.org/2000/svg"
   xmlns:svg="http://www.w3.org/2000/svg"
   xmlns:rdf="http://www.w3.org/1999/02/22-rdf-syntax-ns#"
   xmlns:cc="http://creativecommons.org/ns#"
   xmlns:dc="http://purl.org/dc/elements/1.1/">
  <defs
     id="defs2">
    <rect
       x="-9.8634989"
       y="11.559539"
       width="33.374422"
       height="14.267064"
       id="rect851" />
    <rect
       x="-36.176111"
       y="17.08593"
       width="28.180493"
       height="11.943231"
       id="rect1142" />
  </defs>
  <sodipodi:namedview
     id="base"
     pagecolor="#ffffff"
     bordercolor="#666666"
     borderopacity="1.0"
     inkscape:pageopacity="0.0"
     inkscape:pageshadow="2"
     inkscape:zoom="2.8"
     inkscape:cx="43.571428"
     inkscape:cy="35.714285"
     inkscape:document-units="mm"
     inkscape:current-layer="svg8"
     inkscape:document-rotation="0"
     showgrid="false"
     fit-margin-top="0"
     fit-margin-left="0"
     fit-margin-right="0"
     fit-margin-bottom="0"
     inkscape:window-width="1920"
     inkscape:window-height="1019"
     inkscape:window-x="0"
     inkscape:window-y="33"
     inkscape:window-maximized="1"
     inkscape:pagecheckerboard="0" />
  <metadata
     id="metadata5">
    <rdf:RDF>
      <cc:Work
         rdf:about="">
        <dc:format>image/svg+xml</dc:format>
        <dc:type
           rdf:resource="http://purl.org/dc/dcmitype/StillImage" />
      </cc:Work>
    </rdf:RDF>
  </metadata>
  <g
     inkscape:label="Calque 1"
     inkscape:groupmode="layer"
     id="layer1"
     transform="translate(97.083835,-20.289216)" />
  <path
     id="path833"
     d="M 13.215214,-5.1130934e-6 A 13.229167,13.229166 0 0 0 0,13.229161 13.229167,13.229166 0 0 0 13.229167,26.458326 13.229167,13.229166 0 0 0 26.458333,13.229161 13.229167,13.229166 0 0 0 13.229167,-5.1130934e-6 a 13.229167,13.229166 0 0 0 -0.01395,0 z M 13.183174,1.3229115 a 11.90625,11.906249 0 0 1 0.04599,0 A 11.90625,11.906249 0 0 1 25.135414,13.229161 11.90625,11.906249 0 0 1 13.229167,25.13541 11.90625,11.906249 0 0 1 1.3229167,13.229161 11.90625,11.906249 0 0 1 13.183175,1.3229115 Z" />
  <path
     id="path970-2-9"
     style="fill: none;
	fill-rule: evenodd;
	stroke: #000;
	stroke-width: 0.906449;
	stroke-opacity: 1;"
     d="m 13.244036,25.413793 c 8.359996,-8.359996 8.721527,-15.9957486 0,-24.71727568"
     sodipodi:nodetypes="cc" />
  <path
     id="path970-2-9-2"
     style="fill: none;
	fill-rule: evenodd;
	stroke: #000;
	stroke-width: 0.906449;
	stroke-opacity: 1;"
     d="m 13.214298,25.761814 c -8.3599969,-8.359996 -8.7215279,-15.9957492 0,-24.7172766"
     sodipodi:nodetypes="cc" />
  <path
     id="path970"
     style="fill: none;
	fill-rule: evenodd;
	stroke: #000;
	stroke-width: 0.719159;
	stroke-opacity: 1;"
     d="m 22.198984,3.7095395 c -6.218834,5.2857962 -11.970146,5.2688909 -17.9344458,0"
     sodipodi:nodetypes="cc" />
  <path
     id="path970-6"
     style="fill: none;
	fill-rule: evenodd;
	stroke: #000;
	stroke-width: 0.719;
	stroke-opacity: 1;
	stroke-miterlimit: 4;
	stroke-dasharray: none;"
     d="m 22.198984,22.752331 c -6.218834,-5.285797 -11.970146,-5.268891 -17.934446,0"
     sodipodi:nodetypes="cc" />
  <rect
     id="rect1076"
     width="0.1221219"
     height="25.786715"
     x="13.168105"
     y="0.33580831"
     style="opacity: 1;
	fill: #000;
	fill-opacity: 1;
	stroke: #000;
	stroke-width: 0.671628;
	stroke-opacity: 1;" />
  <rect
     id="rect1074"
     width="24.425537"
     height="9.7229261"
     x="1.016398"
     y="8.3677025" />
  <rect
     id="rect1074-0"
     width="22.274382"
     height="7.7146602"
     x="2.0919764"
     y="9.3718357"
     style="fill: #fff;" />
  <path
     d="m 5.6044874,11.685764 h 0.9591139 l 0.5181419,2.12769 0.5208981,-2.12769 h 0.8240662 l 0.518142,2.105641 0.520898,-2.105641 H 10.424861 L 9.6118194,14.772567 H 8.5341944 L 8.0132963,12.65039 7.4951544,14.772567 H 6.4175293 Z"
     id="path857" />
  <path
     d="m 10.81898,11.685764 h 0.959114 l 0.518142,2.12769 0.520898,-2.12769 H 13.6412 l 0.518142,2.105641 0.520898,-2.105641 h 0.959114 l -0.813042,3.086803 h -1.077625 l -0.520898,-2.122177 -0.518142,2.122177 h -1.077625 z"
     id="path859" />
  <path
     d="m 16.033473,11.685764 h 0.959114 l 0.518142,2.12769 0.520898,-2.12769 h 0.824066 l 0.518142,2.105641 0.520898,-2.105641 h 0.959114 l -0.813042,3.086803 H 18.96318 L 18.442282,12.65039 17.92414,14.772567 h -1.077625 z"
     id="path861" />
</svg>
