<?xml version="1.0" encoding="UTF-8" standalone="no"?>
<svg
   width="100"
   height="100"
   viewBox="0 0 100 100"
   version="1.1"
   id="svg8"
   inkscape:version="1.1 (c4e8f9ed74, 2021-05-24)"
   sodipodi:docname="icon-articles.svg"
   xmlns:inkscape="http://www.inkscape.org/namespaces/inkscape"
   xmlns:sodipodi="http://sodipodi.sourceforge.net/DTD/sodipodi-0.dtd"
   xmlns="http://www.w3.org/2000/svg"
   xmlns:svg="http://www.w3.org/2000/svg"
   xmlns:rdf="http://www.w3.org/1999/02/22-rdf-syntax-ns#"
   xmlns:cc="http://creativecommons.org/ns#"
   xmlns:dc="http://purl.org/dc/elements/1.1/">
  <defs
     id="defs2" />
  <sodipodi:namedview
     id="base"
     pagecolor="#ffffff"
     bordercolor="#666666"
     borderopacity="1.0"
     inkscape:pageopacity="0.0"
     inkscape:pageshadow="2"
     inkscape:zoom="2.8"
     inkscape:cx="-12.5"
     inkscape:cy="37.142857"
     inkscape:document-units="px"
     inkscape:current-layer="svg8"
     inkscape:document-rotation="0"
     showgrid="false"
     fit-margin-top="0"
     fit-margin-left="0"
     fit-margin-right="0"
     fit-margin-bottom="0"
     inkscape:window-width="1920"
     inkscape:window-height="1019"
     inkscape:window-x="0"
     inkscape:window-y="33"
     inkscape:window-maximized="1"
     inkscape:pagecheckerboard="0"
     showguides="false"
     units="px" />
  <metadata
     id="metadata5">
    <rdf:RDF>
      <cc:Work
         rdf:about="">
        <dc:format>image/svg+xml</dc:format>
        <dc:type
           rdf:resource="http://purl.org/dc/dcmitype/StillImage" />
      </cc:Work>
    </rdf:RDF>
  </metadata>
  <path
     id="rect833-3-6"
     style="display: inline;
	fill: #fff;
	fill-opacity: 1;
	stroke: #13406c;
	stroke-width: 3.9844;
	stroke-miterlimit: 4;
	stroke-dasharray: none;
	stroke-opacity: 1;"
     d="m 25.706,17.557756 c 21.3845,0 42.769002,0 64.153501,0 0,26.816679 0,53.633359 0,80.450046 -21.384499,0 -42.769001,0 -64.153501,0 0,-26.816687 0,-53.633367 0,-80.450046 z" />
  <path
     id="rect833-3"
     style="display: inline;
	fill: #fff;
	fill-opacity: 1;
	stroke: #13406c;
	stroke-width: 3.9844;
	stroke-miterlimit: 4;
	stroke-dasharray: none;
	stroke-opacity: 1;"
     d="m 18.110484,9.9622409 c 21.384498,0 42.768998,0 64.153494,0 0,26.8166781 0,53.6333541 0,80.4500351 -21.384496,0 -42.768996,0 -64.153494,0 0,-26.816681 0,-53.633357 0,-80.4500351 z" />
  <path
     id="rect833"
     style="fill: #fff;
	fill-opacity: 1;
	stroke: #13406c;
	stroke-width: 3.9844;
	stroke-miterlimit: 4;
	stroke-dasharray: none;
	stroke-opacity: 1;"
     d="m 10.140499,1.992202 c 21.384493,0 42.768943,0 64.153437,0 0,26.816679 0,53.633349 0,80.450024 -21.384494,0 -42.768944,0 -64.153437,0 0,-26.816675 0,-53.633345 0,-80.450024 z" />
  <path
     id="rect836"
     style="display: inline;
	fill: #13406c;
	fill-opacity: 1;
	stroke: none;
	stroke-width: 0;
	stroke-miterlimit: 4;
	stroke-dasharray: none;
	stroke-opacity: 1;"
     d="m 21.676179,14.044269 c 6.946414,0 13.892829,0 20.839243,0 0,1.653825 0,3.307651 0,4.961475 -6.946414,0 -13.892829,0 -20.839243,0 0,-1.653824 0,-3.30765 0,-4.961475 z" />
  <path
     id="rect838"
     style="display: inline;
	fill: #13406c;
	fill-opacity: 1;
	stroke: none;
	stroke-width: 0;
	stroke-miterlimit: 4;
	stroke-dasharray: none;
	stroke-opacity: 1;"
     d="m 21.676179,28.285861 c 12.322647,0 24.645297,0 36.967941,0 0.005,1.603454 0.531046,3.727852 -1.818328,2.976884 -11.716538,0 -23.433074,0 -35.149613,0 0,-0.992294 0,-1.98459 0,-2.976884 z" />
  <path
     id="rect838-3-7"
     style="display: inline;
	fill: #13406c;
	fill-opacity: 1;
	stroke: none;
	stroke-width: 0;
	stroke-miterlimit: 4;
	stroke-dasharray: none;
	stroke-opacity: 1;"
     d="m 21.676179,68.162335 c 13.249951,0 26.499901,0 39.749851,0 0.0048,1.603454 0.531046,3.727852 -1.818328,2.976884 -12.64384,0 -25.287682,0 -37.931523,0 0,-0.992298 0,-1.984592 0,-2.976884 z" />
  <path
     id="rect838-3"
     style="display: inline;
	fill: #13406c;
	fill-opacity: 1;
	stroke: none;
	stroke-width: 0;
	stroke-miterlimit: 4;
	stroke-dasharray: none;
	stroke-opacity: 1;"
     d="m 21.676179,41.578017 c 13.943685,0 27.887369,0 41.831053,0 0.0048,1.603454 0.531046,3.72785 -1.818332,2.97688 -13.337572,0 -26.675146,0 -40.012721,0 0,-0.992292 0,-1.984588 0,-2.97688 z" />
  <path
     id="rect838-3-6"
     style="display: inline;
	fill: #13406c;
	fill-opacity: 1;
	stroke: none;
	stroke-width: 0;
	stroke-miterlimit: 4;
	stroke-dasharray: none;
	stroke-opacity: 1;"
     d="m 21.676179,54.870171 c 11.852129,0 23.704261,0 35.556389,0 0.005,1.603454 0.531046,3.727858 -1.818328,2.976884 -11.24602,0 -22.49204,0 -33.738061,0 0,-0.992292 0,-1.984586 0,-2.976884 z" />
</svg>
