<?xml version="1.0" encoding="UTF-8" standalone="no"?>
<svg
   width="100"
   height="100"
   viewBox="0 0 100 100"
   version="1.1"
   id="svg8"
   inkscape:version="1.1 (c4e8f9ed74, 2021-05-24)"
   sodipodi:docname="icon-calendar.svg"
   xmlns:inkscape="http://www.inkscape.org/namespaces/inkscape"
   xmlns:sodipodi="http://sodipodi.sourceforge.net/DTD/sodipodi-0.dtd"
   xmlns="http://www.w3.org/2000/svg"
   xmlns:svg="http://www.w3.org/2000/svg"
   xmlns:rdf="http://www.w3.org/1999/02/22-rdf-syntax-ns#"
   xmlns:cc="http://creativecommons.org/ns#"
   xmlns:dc="http://purl.org/dc/elements/1.1/">
  <defs
     id="defs2" />
  <sodipodi:namedview
     id="base"
     pagecolor="#ffffff"
     bordercolor="#666666"
     borderopacity="1.0"
     inkscape:pageopacity="0.0"
     inkscape:pageshadow="2"
     inkscape:zoom="4"
     inkscape:cx="13"
     inkscape:cy="81"
     inkscape:document-units="px"
     inkscape:current-layer="svg8"
     inkscape:document-rotation="0"
     showgrid="false"
     fit-margin-top="0"
     fit-margin-left="0"
     fit-margin-right="0"
     fit-margin-bottom="0"
     showguides="true"
     inkscape:guide-bbox="true"
     inkscape:window-width="1920"
     inkscape:window-height="1019"
     inkscape:window-x="0"
     inkscape:window-y="33"
     inkscape:window-maximized="1"
     inkscape:pagecheckerboard="0"
     units="px" />
  <metadata
     id="metadata5">
    <rdf:RDF>
      <cc:Work
         rdf:about="">
        <dc:format>image/svg+xml</dc:format>
        <dc:type
           rdf:resource="http://purl.org/dc/dcmitype/StillImage" />
      </cc:Work>
    </rdf:RDF>
  </metadata>
  <path
     id="rect833"
     d="M 2.4227905e-7,7.7031085 V 97.703124 H 100 V 7.7031085 H 84.980471 c -0.41015,4.7185325 -14.550788,4.7185325 -14.960939,0 H 29.980473 c -0.410151,4.7185325 -14.550789,4.7185325 -14.960939,0 z"
     style="stroke-width:3.77953" />
  <path
     id="rect934"
     d="m 18.500002,2.2968757 h 7.999684 l 3.18e-4,3.2597936 c 4.87e-4,5.0000017 -7.999688,5.0000017 -7.999688,0 z"
     style="stroke-width:3.77953" />
  <path
     id="rect934-3"
     d="m 73.500235,2.2968757 h 7.999684 l 3.18e-4,3.2597936 c 4.87e-4,5.0000017 -7.999688,5.0000017 -7.999688,0 z"
     style="stroke-width:3.77953" />
  <path
     id="rect836"
     d="M 4.9999999,22.703109 H 95.000003 v 72 H 4.9999999 Z"
     style="fill:#ffffff;stroke-width:3.77953" />
  <path
     id="rect839"
     d="m 15,33.703105 h 10 v 9.999999 H 15 Z"
     style="stroke-width:3.77953" />
  <path
     id="rect839-3"
     d="m 35.000004,33.703105 h 10 v 9.999999 h -10 z"
     style="stroke-width:3.77953" />
  <path
     id="rect839-3-6"
     d="m 55.000003,33.703105 h 9.999999 v 9.999999 h -9.999999 z"
     style="stroke-width:3.77953" />
  <path
     id="rect839-3-6-7"
     d="M 75.000001,33.703105 H 85 v 9.999999 h -9.999999 z"
     style="stroke-width:3.77953" />
  <path
     id="rect839-5"
     d="m 14.999999,53.703103 h 10 v 9.999999 h -10 z"
     style="stroke-width:3.77953" />
  <path
     id="rect839-3-3"
     d="M 35.000001,53.703103 H 45 v 9.999999 h -9.999999 z"
     style="stroke-width:3.77953" />
  <path
     id="rect839-3-6-5"
     d="m 55.000003,53.703103 h 9.999999 v 9.999999 h -9.999999 z"
     style="stroke-width:3.77953" />
  <path
     id="rect839-3-6-7-6"
     d="M 75.000001,53.703103 H 85 v 9.999999 h -9.999999 z"
     style="stroke-width:3.77953" />
  <path
     id="rect839-2"
     d="m 14.999996,73.703108 h 10 v 9.999999 h -10 z"
     style="stroke-width:3.77953" />
  <path
     id="rect839-3-9"
     d="M 35.000001,73.703108 H 45 v 9.999999 h -9.999999 z"
     style="stroke-width:3.77953" />
  <path
     id="rect839-3-6-1"
     d="m 54.999999,73.703108 h 9.999999 v 9.999999 h -9.999999 z"
     style="stroke-width:3.77953" />
  <path
     id="rect839-3-6-7-2"
     d="M 75.000001,73.703108 H 85 v 9.999999 h -9.999999 z"
     style="stroke-width:3.77953" />
</svg>
