<?xml version="1.0" encoding="UTF-8" standalone="no"?>
<svg
   xmlns:dc="http://purl.org/dc/elements/1.1/"
   xmlns:cc="http://creativecommons.org/ns#"
   xmlns:rdf="http://www.w3.org/1999/02/22-rdf-syntax-ns#"
   xmlns:svg="http://www.w3.org/2000/svg"
   xmlns="http://www.w3.org/2000/svg"
   xmlns:sodipodi="http://sodipodi.sourceforge.net/DTD/sodipodi-0.dtd"
   xmlns:inkscape="http://www.inkscape.org/namespaces/inkscape"
   width="26.458334mm"
   height="26.458334mm"
   viewBox="0 0 26.458334 26.458334"
   version="1.1"
   id="svg8"
   inkscape:version="1.0.2 (e86c870879, 2021-01-15)"
   sodipodi:docname="calendar-update.svg">
  <defs
     id="defs2" />
  <sodipodi:namedview
     id="base"
     pagecolor="#ffffff"
     bordercolor="#666666"
     borderopacity="1.0"
     inkscape:pageopacity="0.0"
     inkscape:pageshadow="2"
     inkscape:zoom="4.0000001"
     inkscape:cx="40.057098"
     inkscape:cy="52.265765"
     inkscape:document-units="mm"
     inkscape:current-layer="Layer_3_copy_2"
     inkscape:document-rotation="0"
     showgrid="false"
     fit-margin-top="0"
     fit-margin-left="0"
     fit-margin-right="0"
     fit-margin-bottom="0"
     showguides="true"
     inkscape:guide-bbox="true"
     inkscape:window-width="1920"
     inkscape:window-height="1019"
     inkscape:window-x="0"
     inkscape:window-y="33"
     inkscape:window-maximized="1" />
  <metadata
     id="metadata5">
    <rdf:RDF>
      <cc:Work
         rdf:about="">
        <dc:format>image/svg+xml</dc:format>
        <dc:type
           rdf:resource="http://purl.org/dc/dcmitype/StillImage" />
        <dc:title />
      </cc:Work>
    </rdf:RDF>
  </metadata>
  <g
     inkscape:groupmode="layer"
     id="layer1"
     inkscape:label="Layer 1">
    <path
       id="rect833"
       style="display:inline;fill:#13406c;stroke-width:1.759;fill-opacity:1"
       d="M 3.0183716e-7,2.0381171 V 25.850616 H 26.458334 V 2.0381171 h -3.973919 c -0.108517,1.2484457 -3.849899,1.2484457 -3.95842,0 H 7.9323384 c -0.1085202,1.2484457 -3.8498991,1.2484457 -3.958419,0 z" />
    <path
       id="rect934"
       style="display:inline;fill:#13406c;fill-opacity:1;stroke-width:2.71216"
       d="m 4.8947891,0.60771837 h 2.1165894 l 8e-5,0.86248683 c 1.3e-4,1.3229167 -2.1165794,1.3229167 -2.1165794,0 z"
       sodipodi:nodetypes="ccssc" />
    <path
       id="rect934-3"
       style="display:inline;fill:#13406c;fill-opacity:1;stroke-width:2.71216"
       d="m 19.446935,0.60771837 h 2.11658 l 9e-5,0.86248683 c 1.3e-4,1.3229167 -2.11659,1.3229167 -2.11659,0 z"
       sodipodi:nodetypes="ccssc" />
    <rect
       style="display:inline;fill:#ffffff;fill-opacity:1;stroke-width:18.8005"
       id="rect836"
       width="23.812494"
       height="19.049995"
       x="1.3229247"
       y="6.0068665" />
  </g>
  <g
     inkscape:groupmode="layer"
     id="layer2"
     inkscape:label="Layer 2"
     style="display:none">
    <path
       d="M 8.110724,6.5817132 2.804223,10.08021 4.6955296,10.84746 c -1.6513923,5.015232 0.7937835,10.390777 5.7190994,12.388838 5.099496,2.068721 10.940609,-0.412967 13.019139,-5.53665 C 25.512303,12.575966 23.051019,6.7262236 17.951524,4.6574995 15.866248,3.8115645 13.62035,3.6949195 11.458096,4.3165358 l -0.478672,0.1382286 1.183349,3.083159 0.390254,-0.1008531 c 1.389175,-0.3548691 2.825586,-0.256717 4.156103,0.2830346 3.415787,1.3856881 5.06527,5.3059181 3.671753,8.7410561 -1.39354,3.435141 -5.308013,5.098224 -8.723805,3.712544 -3.212564,-1.30326 -4.8583596,-4.788134 -3.9008512,-8.079009 l 2.2783652,0.924272 z"
       id="path2"
       style="display:inline;fill:#ffffff;fill-opacity:1;stroke:#000000;stroke-width:0.908314;stroke-miterlimit:4;stroke-dasharray:none;stroke-opacity:1"
       sodipodi:nodetypes="cccsssccccsssccc" />
  </g>
  <g
     inkscape:groupmode="layer"
     id="layer3"
     inkscape:label="Layer 3">
    <g
       id="Layer_3_copy_2"
       transform="matrix(0.24595088,0,0,0.24595088,44.61454,11.497136)"
       style="stroke-width:1.00157;stroke-miterlimit:4;stroke-dasharray:none">
      <g
         fill="#555753"
         id="g6"
         style="fill:#13406c;fill-opacity:1;stroke:#13406c;stroke-width:1.00157;stroke-miterlimit:4;stroke-dasharray:none;stroke-opacity:1"
         transform="matrix(1.0814619,0,0,1.0814619,-162.75579,-18.743523)">
        <path
           d="m 32.5,4.999 c -5.405,0 -10.444,1.577 -14.699,4.282 l -5.75,-5.75 v 16.11 h 16.11 l -6.395,-6.395 c 3.18,-1.787 6.834,-2.82 10.734,-2.82 12.171,0 22.073,9.902 22.073,22.074 0,2.899 -0.577,5.664 -1.599,8.202 l 4.738,2.762 C 59.182,40.101 60,36.396 60,32.5 60,17.336 47.663,4.999 32.5,4.999 Z"
           id="path2-3"
           style="fill:#13406c;fill-opacity:1;stroke:#13406c;stroke-width:1.00157;stroke-miterlimit:4;stroke-dasharray:none;stroke-opacity:1" />
        <path
           d="m 43.227,51.746 c -3.179,1.786 -6.826,2.827 -10.726,2.827 -12.171,0 -22.073,-9.902 -22.073,-22.073 0,-2.739 0.524,-5.35 1.439,-7.771 L 7.136,21.878 C 5.761,25.149 5,28.736 5,32.5 5,47.664 17.336,60 32.5,60 c 5.406,0 10.434,-1.584 14.691,-4.289 l 5.758,5.759 V 45.358 H 36.838 Z"
           id="path4"
           style="fill:#13406c;fill-opacity:1;stroke:#13406c;stroke-width:1.00157;stroke-miterlimit:4;stroke-dasharray:none;stroke-opacity:1" />
      </g>
    </g>
  </g>
</svg>
