<?xml version="1.0" encoding="UTF-8" standalone="no"?>
<svg
   width="100"
   height="100"
   viewBox="0 0 100 100"
   version="1.1"
   id="svg8"
   inkscape:version="1.1 (c4e8f9ed74, 2021-05-24)"
   sodipodi:docname="icon-calendar-update.svg"
   xmlns:inkscape="http://www.inkscape.org/namespaces/inkscape"
   xmlns:sodipodi="http://sodipodi.sourceforge.net/DTD/sodipodi-0.dtd"
   xmlns="http://www.w3.org/2000/svg"
   xmlns:svg="http://www.w3.org/2000/svg"
   xmlns:rdf="http://www.w3.org/1999/02/22-rdf-syntax-ns#"
   xmlns:cc="http://creativecommons.org/ns#"
   xmlns:dc="http://purl.org/dc/elements/1.1/">
  <defs
     id="defs2" />
  <sodipodi:namedview
     id="base"
     pagecolor="#ffffff"
     bordercolor="#666666"
     borderopacity="1.0"
     inkscape:pageopacity="0.0"
     inkscape:pageshadow="2"
     inkscape:zoom="2.0000001"
     inkscape:cx="112"
     inkscape:cy="93.999998"
     inkscape:document-units="px"
     inkscape:current-layer="svg8"
     inkscape:document-rotation="0"
     showgrid="false"
     fit-margin-top="0"
     fit-margin-left="0"
     fit-margin-right="0"
     fit-margin-bottom="0"
     showguides="true"
     inkscape:guide-bbox="true"
     inkscape:window-width="1920"
     inkscape:window-height="1019"
     inkscape:window-x="0"
     inkscape:window-y="33"
     inkscape:window-maximized="1"
     inkscape:pagecheckerboard="0"
     units="px" />
  <metadata
     id="metadata5">
    <rdf:RDF>
      <cc:Work
         rdf:about="">
        <dc:format>image/svg+xml</dc:format>
        <dc:type
           rdf:resource="http://purl.org/dc/dcmitype/StillImage" />
      </cc:Work>
    </rdf:RDF>
  </metadata>
  <path
     id="rect833"
     d="M 1.5091858e-7,7.7031185 V 97.703113 H 100 V 7.7031185 H 84.980464 c -0.410143,4.7185355 -14.550799,4.7185355 -14.960957,0 H 29.98049 c -0.410155,4.7185355 -14.550799,4.7185355 -14.960953,0 z"
     style="stroke-width:3.77953" />
  <path
     id="rect934"
     d="m 18.499989,2.2968872 h 7.999708 l 3.02e-4,3.2597927 c 4.92e-4,5.0000001 -7.99967,5.0000001 -7.99967,0 z"
     style="stroke-width:3.77953" />
  <path
     id="rect934-3"
     d="m 73.500225,2.2968872 h 7.999672 l 3.4e-4,3.2597927 c 4.92e-4,5.0000001 -7.99971,5.0000001 -7.99971,0 z"
     style="stroke-width:3.77953" />
  <path
     id="rect836"
     style="fill:#ffffff;stroke-width:3.77953"
     d="M 5.0000293,22.703116 H 95.000007 V 94.703098 H 5.0000293 Z" />
  <path
     d="m 50.000016,31.886912 c -5.270314,0 -10.183743,1.537702 -14.332717,4.175296 l -5.606716,-5.606715 v 15.708559 h 15.708556 l -6.235641,-6.235649 c 3.100759,-1.74247 6.663703,-2.749724 10.466518,-2.749724 11.867713,0 21.522967,9.655255 21.522967,21.523942 0,2.826761 -0.562622,5.522858 -1.559156,7.997614 l 4.619938,2.693174 c 1.433366,-3.279196 2.230985,-6.891874 2.230985,-10.690788 0,-14.786131 -12.029577,-26.815709 -26.814734,-26.815709 z"
     id="path2-3"
     style="stroke-width:0.975084" />
  <path
     d="m 60.459717,77.469031 c -3.099786,1.741497 -6.655906,2.756554 -10.458725,2.756554 -11.867712,0 -21.522965,-9.655255 -21.522965,-21.522964 0,-2.67075 0.510942,-5.216684 1.403141,-7.577356 l -4.613109,-2.779958 c -1.340737,3.189489 -2.082773,6.687106 -2.082773,10.357314 0,14.786131 12.028601,26.814731 26.81473,26.814731 5.27129,0 10.173999,-1.544526 14.324919,-4.182122 l 5.614519,5.615491 V 71.240213 H 54.229919 Z"
     id="path4"
     style="stroke-width:0.975084" />
</svg>
