<?xml version="1.0" encoding="UTF-8" standalone="no"?>
<svg
   width="100"
   height="100"
   viewBox="0 0 99.999999 100"
   version="1.1"
   id="svg8"
   inkscape:version="1.1 (c4e8f9ed74, 2021-05-24)"
   sodipodi:docname="icon-mail.svg"
   xmlns:inkscape="http://www.inkscape.org/namespaces/inkscape"
   xmlns:sodipodi="http://sodipodi.sourceforge.net/DTD/sodipodi-0.dtd"
   xmlns="http://www.w3.org/2000/svg"
   xmlns:svg="http://www.w3.org/2000/svg"
   xmlns:rdf="http://www.w3.org/1999/02/22-rdf-syntax-ns#"
   xmlns:cc="http://creativecommons.org/ns#"
   xmlns:dc="http://purl.org/dc/elements/1.1/">
  <defs
     id="defs2" />
  <sodipodi:namedview
     id="base"
     pagecolor="#ffffff"
     bordercolor="#666666"
     borderopacity="1.0"
     inkscape:pageopacity="0.0"
     inkscape:pageshadow="2"
     inkscape:zoom="0.98994949"
     inkscape:cx="254.55844"
     inkscape:cy="214.15234"
     inkscape:document-units="px"
     inkscape:current-layer="svg8"
     inkscape:document-rotation="0"
     showgrid="false"
     units="px"
     fit-margin-top="0"
     fit-margin-left="0"
     fit-margin-right="0"
     fit-margin-bottom="0"
     inkscape:window-width="1920"
     inkscape:window-height="1019"
     inkscape:window-x="0"
     inkscape:window-y="33"
     inkscape:window-maximized="1"
     inkscape:pagecheckerboard="0" />
  <metadata
     id="metadata5">
    <rdf:RDF>
      <cc:Work
         rdf:about="">
        <dc:format>image/svg+xml</dc:format>
        <dc:type
           rdf:resource="http://purl.org/dc/dcmitype/StillImage" />
      </cc:Work>
    </rdf:RDF>
  </metadata>
  <polygon
     points="512,144.896 339.392,258.624 512,367.744 "
     id="polygon2"
     transform="scale(0.1953125)" />
  <polygon
     points="172.608,258.624 0,144.896 0,367.744 "
     id="polygon8"
     transform="scale(0.1953125)" />
  <path
     d="M 93.75,15.625 H 6.25 c -3.11875,0 -5.59375,2.325 -6.0625,5.31875 L 50,53.7625 99.8125,20.94375 C 99.34375,17.95 96.86875,15.625 93.75,15.625 Z"
     id="path14"
     style="stroke-width: 0.195312;" />
  <path
     d="m 60.5625,54.2875 -8.84375,5.825 C 51.19375,60.45625 50.6,60.625 50,60.625 c -0.6,0 -1.19375,-0.16875 -1.71875,-0.5125 L 39.4375,54.28125 0.2,79.1 c 0.48125,2.96875 2.94375,5.275 6.05,5.275 h 87.5 c 3.10625,0 5.56875,-2.30625 6.05,-5.275 z"
     id="path20"
     style="stroke-width: 0.195312;" />
</svg>
