<?xml version="1.0" encoding="UTF-8" standalone="no"?>
<svg
   xmlns:dc="http://purl.org/dc/elements/1.1/"
   xmlns:cc="http://creativecommons.org/ns#"
   xmlns:rdf="http://www.w3.org/1999/02/22-rdf-syntax-ns#"
   xmlns:svg="http://www.w3.org/2000/svg"
   xmlns="http://www.w3.org/2000/svg"
   xmlns:sodipodi="http://sodipodi.sourceforge.net/DTD/sodipodi-0.dtd"
   xmlns:inkscape="http://www.inkscape.org/namespaces/inkscape"
   width="100"
   height="100"
   viewBox="0 0 100 100"
   version="1.1"
   id="svg8"
   sodipodi:docname="icon-sun.svg"
   inkscape:version="1.0.2 (e86c870879, 2021-01-15)">
  <defs
     id="defs2" />
  <sodipodi:namedview
     id="base"
     pagecolor="#ffffff"
     bordercolor="#666666"
     borderopacity="1.0"
     inkscape:pageopacity="0.0"
     inkscape:pageshadow="2"
     inkscape:zoom="1.4"
     inkscape:cx="-150.56928"
     inkscape:cy="144.35412"
     inkscape:document-units="px"
     inkscape:current-layer="layer1"
     inkscape:document-rotation="0"
     showgrid="false"
     units="px"
     scale-x="1"
     inkscape:window-width="1920"
     inkscape:window-height="1019"
     inkscape:window-x="0"
     inkscape:window-y="33"
     inkscape:window-maximized="1" />
  <metadata
     id="metadata5">
    <rdf:RDF>
      <cc:Work
         rdf:about="">
        <dc:format>image/svg+xml</dc:format>
        <dc:type
           rdf:resource="http://purl.org/dc/dcmitype/StillImage" />
        <dc:title />
      </cc:Work>
    </rdf:RDF>
  </metadata>
  <g
     inkscape:label="Calque 1"
     inkscape:groupmode="layer"
     id="layer1">
    <path
       d="M 70,50 A 20,20 0 0 1 50,70 20,20 0 0 1 30,50 20,20 0 0 1 50,30 20,20 0 0 1 70,50 Z"
       style="opacity:1;fill:#000000;stroke-width:2.03852"
       id="path832" />
    <path
       d="m 98.557466,51.159981 c 2.740384,0.06931 1.191783,12.435365 -1.4797,11.818702 l -16.02995,-3.699565 c -2.67148,-0.61656 -1.67713,-8.604282 1.06325,-8.534975 z m -18.62636,38.405024 c 1.69461,2.15621 -9.3101,8.87708 -10.43916,6.37938 L 62.714516,80.95373 c -1.12905,-2.498425 5.3584,-6.479535 7.05198,-4.323735 z m -41.67127,9.50331 c -0.60258,2.674575 -12.7528,-1.7306 -11.52091,-4.17998 l 7.39029,-14.697901 c 1.23085,-2.449582 8.35276,0.155168 7.75018,2.829841 z M 4.8107362,72.50945 c -2.44938,1.231577 -6.62216,-11.001421 -3.94759003,-11.60451 L 16.911596,57.286403 c 2.67457,-0.603089 5.04683,6.601593 2.59745,7.833273 z m -0.0206,-43.07313 c -2.44937,-1.231578 4.60364,-12.077008 6.6807798,-10.287482 l 12.46384,10.737459 c 2.07714,1.789526 -1.99693,8.171374 -4.44733,6.939796 z M 38.214556,2.8460913 c -0.60257,-2.67467299 12.28287,-3.96404 12.21501,-1.223042 l -0.4072,16.4458827 c -0.0679,2.740998 -7.58567,3.499873 -8.18927,0.825199 z m 41.65585,9.4462417 c 1.68536,-2.162998 10.76101,7.084784 8.59749,8.769835 l -12.97696,10.109897 c -2.16351,1.684949 -7.41497,-3.739051 -5.73063,-5.90205 z M 98.556407,50.71062 c 2.740383,-0.06797 1.201038,12.848016 -1.470451,12.231353 l -16.02891,-3.699565 c -2.67149,-0.61656 -1.68742,-8.056308 1.05296,-8.124175 z"
       style="opacity:1;fill:#000000;stroke-width:3.34949"
       id="rect836" />
  </g>
</svg>
