<?xml version="1.0" encoding="UTF-8" standalone="no"?>
<!-- Created with Inkscape (http://www.inkscape.org/) -->

<svg
   width="100"
   height="100"
   viewBox="0 0 100 100"
   version="1.1"
   id="svg5"
   inkscape:version="1.1 (c4e8f9ed74, 2021-05-24)"
   sodipodi:docname="icon-quote-begin.svg"
   xmlns:inkscape="http://www.inkscape.org/namespaces/inkscape"
   xmlns:sodipodi="http://sodipodi.sourceforge.net/DTD/sodipodi-0.dtd"
   xmlns="http://www.w3.org/2000/svg"
   xmlns:svg="http://www.w3.org/2000/svg">
  <sodipodi:namedview
     id="namedview7"
     pagecolor="#ffffff"
     bordercolor="#666666"
     borderopacity="1.0"
     inkscape:pageshadow="2"
     inkscape:pageopacity="0.0"
     inkscape:pagecheckerboard="0"
     inkscape:document-units="px"
     showgrid="false"
     units="px"
     width="100px"
     inkscape:zoom="2.9647587"
     inkscape:cx="3.0356602"
     inkscape:cy="106.9227"
     inkscape:window-width="1920"
     inkscape:window-height="1019"
     inkscape:window-x="0"
     inkscape:window-y="33"
     inkscape:window-maximized="1"
     inkscape:current-layer="svg5" />
  <defs
     id="defs2" />
  <path
     d="M 92.92038,6.9321468 C 66.66667,24.926251 54.277306,42.920352 54.277306,63.864311 c 0,17.699112 9.734493,29.203542 24.188804,29.203542 11.20944,0 19.174039,-7.669619 19.174039,-17.994101 0,-10.324487 -7.964599,-17.404135 -19.46902,-17.404135 l -5.30974,0.294983 c -0.59,0.294981 -0.88498,0.294981 -1.17996,0.294981 -1.17993,0 -1.76993,-0.884955 -1.76993,-2.654865 0,-12.68437 9.43955,-25.368737 30.088496,-40.412988 z m -54.277304,0 C 12.389405,24.926251 4.785e-6,42.920352 4.785e-6,63.864311 c 0,17.699112 9.734531415,29.203542 24.188801215,29.203542 11.209438,0 19.174044,-7.669619 19.174044,-17.994101 0,-10.324487 -7.964607,-17.404135 -19.469026,-17.404135 L 18.584087,57.9646 c -0.589963,0.294981 -0.88498,0.294981 -1.179963,0.294981 -1.179926,0 -1.769888,-0.884955 -1.769888,-2.654865 0,-12.68437 12.094382,-29.203546 30.088501,-40.412988 z"
     id="path868" />
</svg>
