<?xml version="1.0" encoding="UTF-8" standalone="no"?>
<svg
   xmlns:dc="http://purl.org/dc/elements/1.1/"
   xmlns:cc="http://creativecommons.org/ns#"
   xmlns:rdf="http://www.w3.org/1999/02/22-rdf-syntax-ns#"
   xmlns:svg="http://www.w3.org/2000/svg"
   xmlns="http://www.w3.org/2000/svg"
   xmlns:sodipodi="http://sodipodi.sourceforge.net/DTD/sodipodi-0.dtd"
   xmlns:inkscape="http://www.inkscape.org/namespaces/inkscape"
   width="100"
   height="100"
   viewBox="0 0 99.999999 100"
   version="1.1"
   id="svg8"
   inkscape:version="1.0.2 (e86c870879, 2021-01-15, custom)"
   sodipodi:docname="icon-mail.svg">
  <defs
     id="defs2" />
  <sodipodi:namedview
     id="base"
     pagecolor="#ffffff"
     bordercolor="#666666"
     borderopacity="1.0"
     inkscape:pageopacity="0.0"
     inkscape:pageshadow="2"
     inkscape:zoom="2.8"
     inkscape:cx="-28.851924"
     inkscape:cy="0.065222188"
     inkscape:document-units="px"
     inkscape:current-layer="layer1"
     inkscape:document-rotation="0"
     showgrid="false"
     units="px"
     fit-margin-top="0"
     fit-margin-left="0"
     fit-margin-right="0"
     fit-margin-bottom="0"
     inkscape:window-width="1920"
     inkscape:window-height="1019"
     inkscape:window-x="0"
     inkscape:window-y="33"
     inkscape:window-maximized="1" />
  <metadata
     id="metadata5">
    <rdf:RDF>
      <cc:Work
         rdf:about="">
        <dc:format>image/svg+xml</dc:format>
        <dc:type
           rdf:resource="http://purl.org/dc/dcmitype/StillImage" />
        <dc:title />
      </cc:Work>
    </rdf:RDF>
  </metadata>
  <g
     inkscape:label="Calque 1"
     inkscape:groupmode="layer"
     id="layer1"
     transform="translate(-20.245606,-10.119261)">
    <g
       id="g6"
       transform="matrix(0.1953125,0,0,0.1953125,20.245606,10.119261)">
      <g
         id="g4">
        <polygon
           points="339.392,258.624 512,367.744 512,144.896 "
           id="polygon2" />
      </g>
    </g>
    <g
       id="g12"
       transform="matrix(0.1953125,0,0,0.1953125,20.245606,10.119261)">
      <g
         id="g10">
        <polygon
           points="0,144.896 0,367.744 172.608,258.624 "
           id="polygon8" />
      </g>
    </g>
    <g
       id="g18"
       transform="matrix(0.1953125,0,0,0.1953125,20.245606,10.119261)">
      <g
         id="g16">
        <path
           d="M 480,80 H 32 C 16.032,80 3.36,91.904 0.96,107.232 L 256,275.264 511.04,107.232 C 508.64,91.904 495.968,80 480,80 Z"
           id="path14" />
      </g>
    </g>
    <g
       id="g24"
       transform="matrix(0.1953125,0,0,0.1953125,20.245606,10.119261)">
      <g
         id="g22">
        <path
           d="m 310.08,277.952 -45.28,29.824 c -2.688,1.76 -5.728,2.624 -8.8,2.624 -3.072,0 -6.112,-0.864 -8.8,-2.624 L 201.92,277.92 1.024,404.992 C 3.488,420.192 16.096,432 32,432 h 448 c 15.904,0 28.512,-11.808 30.976,-27.008 z"
           id="path20" />
      </g>
    </g>
    <g
       id="g26"
       transform="matrix(0.1953125,0,0,0.1953125,20.245606,10.119261)" />
    <g
       id="g28"
       transform="matrix(0.1953125,0,0,0.1953125,20.245606,10.119261)" />
    <g
       id="g30"
       transform="matrix(0.1953125,0,0,0.1953125,20.245606,10.119261)" />
    <g
       id="g32"
       transform="matrix(0.1953125,0,0,0.1953125,20.245606,10.119261)" />
    <g
       id="g34"
       transform="matrix(0.1953125,0,0,0.1953125,20.245606,10.119261)" />
    <g
       id="g36"
       transform="matrix(0.1953125,0,0,0.1953125,20.245606,10.119261)" />
    <g
       id="g38"
       transform="matrix(0.1953125,0,0,0.1953125,20.245606,10.119261)" />
    <g
       id="g40"
       transform="matrix(0.1953125,0,0,0.1953125,20.245606,10.119261)" />
    <g
       id="g42"
       transform="matrix(0.1953125,0,0,0.1953125,20.245606,10.119261)" />
    <g
       id="g44"
       transform="matrix(0.1953125,0,0,0.1953125,20.245606,10.119261)" />
    <g
       id="g46"
       transform="matrix(0.1953125,0,0,0.1953125,20.245606,10.119261)" />
    <g
       id="g48"
       transform="matrix(0.1953125,0,0,0.1953125,20.245606,10.119261)" />
    <g
       id="g50"
       transform="matrix(0.1953125,0,0,0.1953125,20.245606,10.119261)" />
    <g
       id="g52"
       transform="matrix(0.1953125,0,0,0.1953125,20.245606,10.119261)" />
    <g
       id="g54"
       transform="matrix(0.1953125,0,0,0.1953125,20.245606,10.119261)" />
  </g>
</svg>
