<?xml version="1.0" standalone="no"?>
<!DOCTYPE svg PUBLIC "-//W3C//DTD SVG 20010904//EN"
 "http://www.w3.org/TR/2001/REC-SVG-20010904/DTD/svg10.dtd">
<svg version="1.0" xmlns="http://www.w3.org/2000/svg"
 width="700.000000pt" height="700.000000pt" viewBox="0 0 700.000000 700.000000"
 preserveAspectRatio="xMidYMid meet">
<metadata>
Created by potrace 1.11, written by Peter Selinger 2001-2013
</metadata>
<g transform="translate(0.000000,700.000000) scale(0.100000,-0.100000)"
fill="#000000" stroke="none">
<path d="M0 3500 l0 -3500 3500 0 3500 0 0 3500 0 3500 -3500 0 -3500 0 0
-3500z m3032 60 c279 -729 508 -1326 508 -1327 0 -2 -182 -3 -404 -3 l-405 0
-112 285 -113 285 -400 -2 -399 -3 -72 -185 c-40 -102 -89 -229 -109 -282
l-38 -98 -405 0 c-320 0 -404 3 -400 13 24 64 993 2590 1003 2615 l13 32 412
-2 413 -3 508 -1325z m2468 1298 c123 -34 193 -65 285 -129 178 -123 285 -288
347 -536 19 -75 22 -115 22 -278 0 -174 -2 -198 -26 -287 -78 -287 -279 -514
-543 -614 -153 -58 -219 -65 -612 -71 l-363 -6 0 -353 0 -354 -390 0 -390 0 0
1330 0 1331 788 -3 787 -4 95 -26z"/>
<path d="M1960 3748 c-80 -209 -146 -384 -148 -389 -2 -5 124 -9 293 -9 285 0
297 1 292 19 -7 29 -280 745 -286 753 -3 4 -71 -164 -151 -374z"/>
<path d="M4610 3919 l0 -381 253 4 c296 5 321 11 403 93 74 73 97 140 98 275
1 226 -85 351 -264 379 -36 6 -161 11 -277 11 l-213 0 0 -381z"/>
</g>
</svg>
