<?xml version="1.0" encoding="UTF-8" standalone="no"?>
<svg
   xmlns:dc="http://purl.org/dc/elements/1.1/"
   xmlns:cc="http://creativecommons.org/ns#"
   xmlns:rdf="http://www.w3.org/1999/02/22-rdf-syntax-ns#"
   xmlns:svg="http://www.w3.org/2000/svg"
   xmlns="http://www.w3.org/2000/svg"
   xmlns:sodipodi="http://sodipodi.sourceforge.net/DTD/sodipodi-0.dtd"
   xmlns:inkscape="http://www.inkscape.org/namespaces/inkscape"
   width="28.21533"
   height="24.303474"
   id="svg2"
   inkscape:label="Pozadí"
   sodipodi:version="0.32"
   inkscape:version="1.0.2 (e86c870879, 2021-01-15)"
   version="1.0"
   sodipodi:docname="icon-quote-begin.svg"
   inkscape:output_extension="org.inkscape.output.svg.inkscape"
   sodipodi:modified="true">
  <defs
     id="defs3">
    <rect
       x="-174.0383"
       y="-59.121887"
       width="63.847633"
       height="81.439781"
       id="rect864" />
  </defs>
  <sodipodi:namedview
     id="base"
     pagecolor="#ffffff"
     bordercolor="#666666"
     borderopacity="1.0"
     inkscape:pageopacity="0.0"
     inkscape:pageshadow="2"
     inkscape:zoom="2.8"
     inkscape:cx="-78.658466"
     inkscape:cy="19.660683"
     inkscape:document-units="px"
     inkscape:current-layer="layer3"
     width="112px"
     height="76px"
     inkscape:window-width="1920"
     inkscape:window-height="1019"
     inkscape:window-x="0"
     inkscape:window-y="33"
     inkscape:document-rotation="0"
     showgrid="false"
     inkscape:window-maximized="1"
     fit-margin-top="0"
     fit-margin-left="0"
     fit-margin-right="0"
     fit-margin-bottom="0" />
  <metadata
     id="metadata6">
    <rdf:RDF>
      <cc:Work
         rdf:about="">
        <dc:format>image/svg+xml</dc:format>
        <dc:type
           rdf:resource="http://purl.org/dc/dcmitype/StillImage" />
        <dc:title>Czech right quotation mark</dc:title>
        <dc:date>2007-08-27</dc:date>
        <dc:creator>
          <cc:Agent>
            <dc:title>Petr Kadlec &lt;http://cs.wikipedia.org/wiki/User:Mormegil&gt;</dc:title>
          </cc:Agent>
        </dc:creator>
        <cc:license
           rdf:resource="http://web.resource.org/cc/PublicDomain" />
      </cc:Work>
      <cc:License
         rdf:about="http://web.resource.org/cc/PublicDomain">
        <cc:permits
           rdf:resource="http://web.resource.org/cc/Reproduction" />
        <cc:permits
           rdf:resource="http://web.resource.org/cc/Distribution" />
        <cc:permits
           rdf:resource="http://web.resource.org/cc/DerivativeWorks" />
      </cc:License>
    </rdf:RDF>
  </metadata>
  <g
     inkscape:groupmode="layer"
     id="layer3"
     inkscape:label="Calque 1"
     transform="translate(-41.892335,-25.848263)">
    <g
       aria-label="“"
       id="text862"
       style="font-style:normal;font-weight:normal;font-size:64px;line-height:1.25;font-family:sans-serif;letter-spacing:0px;word-spacing:0px;white-space:pre;shape-inside:url(#rect864);fill:#194476;fill-opacity:1;stroke:none">
      <path
         d="m 68.110125,25.848263 c -7.40757,5.077096 -10.90327,10.154191 -10.90327,16.063598 0,4.993864 2.74662,8.239876 6.82495,8.239876 3.16278,0 5.41002,-2.164008 5.41002,-5.077095 0,-2.913088 -2.24724,-4.910634 -5.49325,-4.910634 l -1.49816,0.08323 c -0.16647,0.08323 -0.2497,0.08323 -0.33293,0.08323 -0.33292,0 -0.49939,-0.249693 -0.49939,-0.749079 0,-3.578937 2.6634,-7.157873 8.48957,-11.402658 z m -15.31452,0 c -7.40756,5.077096 -10.90327,10.154191 -10.90327,16.063598 0,4.993864 2.74663,8.239876 6.82495,8.239876 3.16278,0 5.41002,-2.164008 5.41002,-5.077095 0,-2.913088 -2.24724,-4.910634 -5.49325,-4.910634 l -1.49816,0.08323 c -0.16646,0.08323 -0.2497,0.08323 -0.33293,0.08323 -0.33292,0 -0.49938,-0.249693 -0.49938,-0.749079 0,-3.578937 3.41247,-8.239877 8.48957,-11.402658 z"
         style="font-style:normal;font-variant:normal;font-weight:normal;font-stretch:normal;font-size:64px;font-family:C059;-inkscape-font-specification:C059;fill:#194476;fill-opacity:1;stroke-width:1.30049"
         id="path868" />
    </g>
  </g>
</svg>
